<mxfile host="app.diagrams.net" modified="2024-05-02T19:48:45.014Z" agent="Mozilla/5.0 (Windows NT 10.0; Win64; x64) AppleWebKit/537.36 (KHTML, like Gecko) Chrome/124.0.0.0 Safari/537.36" etag="mOrOaOu03TAzFQn-pCE5" version="24.3.1" type="github" pages="2">
  <diagram id="C5RBs43oDa-KdzZeNtuy" name="Ayana&#39;s Idea">
    <mxGraphModel dx="3741" dy="1107" grid="1" gridSize="10" guides="1" tooltips="1" connect="1" arrows="1" fold="1" page="1" pageScale="1" pageWidth="827" pageHeight="1169" math="0" shadow="0">
      <root>
        <mxCell id="WIyWlLk6GJQsqaUBKTNV-0" />
        <mxCell id="WIyWlLk6GJQsqaUBKTNV-1" parent="WIyWlLk6GJQsqaUBKTNV-0" />
        <mxCell id="N1MgPbPK6xEOm-_JlRt1-0" style="edgeStyle=elbowEdgeStyle;rounded=0;orthogonalLoop=1;jettySize=auto;elbow=vertical;html=1;strokeColor=default;align=center;verticalAlign=middle;fontFamily=Helvetica;fontSize=12;fontColor=default;labelBackgroundColor=default;startSize=8;endArrow=classic;endSize=8;" parent="WIyWlLk6GJQsqaUBKTNV-1" source="N1MgPbPK6xEOm-_JlRt1-2" target="N1MgPbPK6xEOm-_JlRt1-84" edge="1">
          <mxGeometry relative="1" as="geometry" />
        </mxCell>
        <mxCell id="N1MgPbPK6xEOm-_JlRt1-1" style="edgeStyle=elbowEdgeStyle;rounded=0;orthogonalLoop=1;jettySize=auto;html=1;strokeColor=default;align=center;verticalAlign=middle;fontFamily=Helvetica;fontSize=12;fontColor=default;labelBackgroundColor=default;startSize=8;endArrow=classic;endSize=8;" parent="WIyWlLk6GJQsqaUBKTNV-1" source="N1MgPbPK6xEOm-_JlRt1-2" target="N1MgPbPK6xEOm-_JlRt1-89" edge="1">
          <mxGeometry relative="1" as="geometry" />
        </mxCell>
        <mxCell id="N1MgPbPK6xEOm-_JlRt1-2" value="CityStatistics" style="swimlane;fontStyle=1;align=center;verticalAlign=top;childLayout=stackLayout;horizontal=1;startSize=38;horizontalStack=0;resizeParent=1;resizeParentMax=0;resizeLast=0;collapsible=1;marginBottom=0;whiteSpace=wrap;html=1;autosize=1;" parent="WIyWlLk6GJQsqaUBKTNV-1" vertex="1">
          <mxGeometry x="-660" y="900" width="160" height="146" as="geometry">
            <mxRectangle x="170" y="560" width="100" height="30" as="alternateBounds" />
          </mxGeometry>
        </mxCell>
        <mxCell id="N1MgPbPK6xEOm-_JlRt1-3" value="+ healthyPopulation : int&lt;div&gt;+ infectedPopulation : int&lt;/div&gt;&lt;div&gt;+ BuildingType : struct&lt;/div&gt;&lt;div&gt;+ economyHealth : int&lt;/div&gt;" style="text;strokeColor=none;fillColor=none;align=left;verticalAlign=top;spacingLeft=4;spacingRight=4;overflow=hidden;rotatable=0;points=[[0,0.5],[1,0.5]];portConstraint=eastwest;whiteSpace=wrap;html=1;autosize=1;" parent="N1MgPbPK6xEOm-_JlRt1-2" vertex="1">
          <mxGeometry y="38" width="160" height="70" as="geometry" />
        </mxCell>
        <mxCell id="N1MgPbPK6xEOm-_JlRt1-4" value="" style="line;strokeWidth=1;fillColor=none;align=left;verticalAlign=middle;spacingTop=-1;spacingLeft=3;spacingRight=3;rotatable=0;labelPosition=right;points=[];portConstraint=eastwest;strokeColor=inherit;" parent="N1MgPbPK6xEOm-_JlRt1-2" vertex="1">
          <mxGeometry y="108" width="160" height="8" as="geometry" />
        </mxCell>
        <mxCell id="N1MgPbPK6xEOm-_JlRt1-5" value="-&amp;nbsp;" style="text;strokeColor=none;fillColor=none;align=left;verticalAlign=top;spacingLeft=4;spacingRight=4;overflow=hidden;rotatable=0;points=[[0,0.5],[1,0.5]];portConstraint=eastwest;whiteSpace=wrap;html=1;autosize=1;" parent="N1MgPbPK6xEOm-_JlRt1-2" vertex="1">
          <mxGeometry y="116" width="160" height="30" as="geometry" />
        </mxCell>
        <mxCell id="N1MgPbPK6xEOm-_JlRt1-6" style="edgeStyle=elbowEdgeStyle;rounded=0;orthogonalLoop=1;jettySize=auto;html=1;fontSize=12;startSize=8;endSize=8;elbow=vertical;" parent="WIyWlLk6GJQsqaUBKTNV-1" source="N1MgPbPK6xEOm-_JlRt1-9" target="N1MgPbPK6xEOm-_JlRt1-16" edge="1">
          <mxGeometry relative="1" as="geometry">
            <mxPoint x="-610" y="1326" as="targetPoint" />
          </mxGeometry>
        </mxCell>
        <mxCell id="N1MgPbPK6xEOm-_JlRt1-7" style="edgeStyle=elbowEdgeStyle;rounded=0;orthogonalLoop=1;jettySize=auto;elbow=vertical;html=1;strokeColor=default;align=center;verticalAlign=middle;fontFamily=Helvetica;fontSize=12;fontColor=default;labelBackgroundColor=default;startSize=8;endArrow=classic;endSize=8;" parent="WIyWlLk6GJQsqaUBKTNV-1" source="N1MgPbPK6xEOm-_JlRt1-9" target="N1MgPbPK6xEOm-_JlRt1-28" edge="1">
          <mxGeometry relative="1" as="geometry" />
        </mxCell>
        <mxCell id="N1MgPbPK6xEOm-_JlRt1-8" style="edgeStyle=elbowEdgeStyle;rounded=0;orthogonalLoop=1;jettySize=auto;elbow=vertical;html=1;strokeColor=default;align=center;verticalAlign=middle;fontFamily=Helvetica;fontSize=12;fontColor=default;labelBackgroundColor=default;startSize=8;endArrow=classic;endSize=8;" parent="WIyWlLk6GJQsqaUBKTNV-1" source="N1MgPbPK6xEOm-_JlRt1-9" target="N1MgPbPK6xEOm-_JlRt1-2" edge="1">
          <mxGeometry relative="1" as="geometry" />
        </mxCell>
        <mxCell id="N1MgPbPK6xEOm-_JlRt1-9" value="BuildingTypeDispenser" style="swimlane;fontStyle=1;align=center;verticalAlign=top;childLayout=stackLayout;horizontal=1;startSize=38;horizontalStack=0;resizeParent=1;resizeParentMax=0;resizeLast=0;collapsible=1;marginBottom=0;whiteSpace=wrap;html=1;autosize=1;" parent="WIyWlLk6GJQsqaUBKTNV-1" vertex="1">
          <mxGeometry x="-730" y="1160" width="300" height="136" as="geometry">
            <mxRectangle x="456" y="270" width="100" height="30" as="alternateBounds" />
          </mxGeometry>
        </mxCell>
        <mxCell id="N1MgPbPK6xEOm-_JlRt1-10" value="+ maxCapacity : virtual int&lt;div&gt;+ currentOccupying : virtual int&lt;/div&gt;&lt;div&gt;+ crowdDensity : virtual float&lt;/div&gt;" style="text;strokeColor=none;fillColor=none;align=left;verticalAlign=top;spacingLeft=4;spacingRight=4;overflow=hidden;rotatable=0;points=[[0,0.5],[1,0.5]];portConstraint=eastwest;whiteSpace=wrap;html=1;autosize=1;" parent="N1MgPbPK6xEOm-_JlRt1-9" vertex="1">
          <mxGeometry y="38" width="300" height="60" as="geometry" />
        </mxCell>
        <mxCell id="N1MgPbPK6xEOm-_JlRt1-11" value="" style="line;strokeWidth=1;fillColor=none;align=left;verticalAlign=middle;spacingTop=-1;spacingLeft=3;spacingRight=3;rotatable=0;labelPosition=right;points=[];portConstraint=eastwest;strokeColor=inherit;" parent="N1MgPbPK6xEOm-_JlRt1-9" vertex="1">
          <mxGeometry y="98" width="300" height="8" as="geometry" />
        </mxCell>
        <mxCell id="N1MgPbPK6xEOm-_JlRt1-12" value="- propagateVirus(infectionRate, populationDensity)" style="text;strokeColor=none;fillColor=none;align=left;verticalAlign=top;spacingLeft=4;spacingRight=4;overflow=hidden;rotatable=0;points=[[0,0.5],[1,0.5]];portConstraint=eastwest;whiteSpace=wrap;html=1;autosize=1;" parent="N1MgPbPK6xEOm-_JlRt1-9" vertex="1">
          <mxGeometry y="106" width="300" height="30" as="geometry" />
        </mxCell>
        <mxCell id="N1MgPbPK6xEOm-_JlRt1-13" style="edgeStyle=elbowEdgeStyle;rounded=0;orthogonalLoop=1;jettySize=auto;elbow=vertical;html=1;strokeColor=default;align=center;verticalAlign=middle;fontFamily=Helvetica;fontSize=12;fontColor=default;labelBackgroundColor=default;startSize=8;endArrow=classic;endSize=8;" parent="WIyWlLk6GJQsqaUBKTNV-1" source="N1MgPbPK6xEOm-_JlRt1-16" target="N1MgPbPK6xEOm-_JlRt1-106" edge="1">
          <mxGeometry relative="1" as="geometry" />
        </mxCell>
        <mxCell id="N1MgPbPK6xEOm-_JlRt1-14" style="edgeStyle=elbowEdgeStyle;rounded=0;orthogonalLoop=1;jettySize=auto;elbow=vertical;html=1;strokeColor=default;align=center;verticalAlign=middle;fontFamily=Helvetica;fontSize=12;fontColor=default;labelBackgroundColor=default;startSize=8;endArrow=classic;endSize=8;" parent="WIyWlLk6GJQsqaUBKTNV-1" source="N1MgPbPK6xEOm-_JlRt1-16" target="N1MgPbPK6xEOm-_JlRt1-102" edge="1">
          <mxGeometry relative="1" as="geometry" />
        </mxCell>
        <mxCell id="N1MgPbPK6xEOm-_JlRt1-15" style="edgeStyle=elbowEdgeStyle;rounded=0;orthogonalLoop=1;jettySize=auto;elbow=vertical;html=1;strokeColor=default;align=center;verticalAlign=middle;fontFamily=Helvetica;fontSize=12;fontColor=default;labelBackgroundColor=default;startSize=8;endArrow=classic;endSize=8;" parent="WIyWlLk6GJQsqaUBKTNV-1" source="N1MgPbPK6xEOm-_JlRt1-16" target="N1MgPbPK6xEOm-_JlRt1-98" edge="1">
          <mxGeometry relative="1" as="geometry" />
        </mxCell>
        <mxCell id="N1MgPbPK6xEOm-_JlRt1-16" value="ResidentialBuildings" style="swimlane;fontStyle=1;align=center;verticalAlign=top;childLayout=stackLayout;horizontal=1;startSize=38;horizontalStack=0;resizeParent=1;resizeParentMax=0;resizeLast=0;collapsible=1;marginBottom=0;whiteSpace=wrap;html=1;autosize=1;" parent="WIyWlLk6GJQsqaUBKTNV-1" vertex="1">
          <mxGeometry x="-876" y="1376" width="160" height="106" as="geometry">
            <mxRectangle x="456" y="270" width="100" height="30" as="alternateBounds" />
          </mxGeometry>
        </mxCell>
        <mxCell id="N1MgPbPK6xEOm-_JlRt1-17" value="+&amp;nbsp;" style="text;strokeColor=none;fillColor=none;align=left;verticalAlign=top;spacingLeft=4;spacingRight=4;overflow=hidden;rotatable=0;points=[[0,0.5],[1,0.5]];portConstraint=eastwest;whiteSpace=wrap;html=1;autosize=1;" parent="N1MgPbPK6xEOm-_JlRt1-16" vertex="1">
          <mxGeometry y="38" width="160" height="30" as="geometry" />
        </mxCell>
        <mxCell id="N1MgPbPK6xEOm-_JlRt1-18" value="" style="line;strokeWidth=1;fillColor=none;align=left;verticalAlign=middle;spacingTop=-1;spacingLeft=3;spacingRight=3;rotatable=0;labelPosition=right;points=[];portConstraint=eastwest;strokeColor=inherit;" parent="N1MgPbPK6xEOm-_JlRt1-16" vertex="1">
          <mxGeometry y="68" width="160" height="8" as="geometry" />
        </mxCell>
        <mxCell id="N1MgPbPK6xEOm-_JlRt1-19" value="-&amp;nbsp;" style="text;strokeColor=none;fillColor=none;align=left;verticalAlign=top;spacingLeft=4;spacingRight=4;overflow=hidden;rotatable=0;points=[[0,0.5],[1,0.5]];portConstraint=eastwest;whiteSpace=wrap;html=1;autosize=1;" parent="N1MgPbPK6xEOm-_JlRt1-16" vertex="1">
          <mxGeometry y="76" width="160" height="30" as="geometry" />
        </mxCell>
        <mxCell id="N1MgPbPK6xEOm-_JlRt1-20" style="edgeStyle=elbowEdgeStyle;rounded=0;orthogonalLoop=1;jettySize=auto;elbow=vertical;html=1;strokeColor=default;align=center;verticalAlign=middle;fontFamily=Helvetica;fontSize=12;fontColor=default;labelBackgroundColor=default;startSize=8;endArrow=classic;endSize=8;" parent="WIyWlLk6GJQsqaUBKTNV-1" source="N1MgPbPK6xEOm-_JlRt1-28" target="N1MgPbPK6xEOm-_JlRt1-36" edge="1">
          <mxGeometry relative="1" as="geometry" />
        </mxCell>
        <mxCell id="N1MgPbPK6xEOm-_JlRt1-21" style="edgeStyle=elbowEdgeStyle;rounded=0;orthogonalLoop=1;jettySize=auto;elbow=vertical;html=1;strokeColor=default;align=center;verticalAlign=middle;fontFamily=Helvetica;fontSize=12;fontColor=default;labelBackgroundColor=default;startSize=8;endArrow=classic;endSize=8;" parent="WIyWlLk6GJQsqaUBKTNV-1" source="N1MgPbPK6xEOm-_JlRt1-28" target="N1MgPbPK6xEOm-_JlRt1-32" edge="1">
          <mxGeometry relative="1" as="geometry">
            <Array as="points">
              <mxPoint x="-250" y="1686" />
            </Array>
          </mxGeometry>
        </mxCell>
        <mxCell id="N1MgPbPK6xEOm-_JlRt1-22" style="edgeStyle=elbowEdgeStyle;rounded=0;orthogonalLoop=1;jettySize=auto;elbow=vertical;html=1;strokeColor=default;align=center;verticalAlign=middle;fontFamily=Helvetica;fontSize=12;fontColor=default;labelBackgroundColor=default;startSize=8;endArrow=classic;endSize=8;" parent="WIyWlLk6GJQsqaUBKTNV-1" source="N1MgPbPK6xEOm-_JlRt1-28" target="N1MgPbPK6xEOm-_JlRt1-43" edge="1">
          <mxGeometry relative="1" as="geometry">
            <Array as="points">
              <mxPoint x="-250" y="1876" />
            </Array>
          </mxGeometry>
        </mxCell>
        <mxCell id="N1MgPbPK6xEOm-_JlRt1-23" style="edgeStyle=elbowEdgeStyle;rounded=0;orthogonalLoop=1;jettySize=auto;elbow=vertical;html=1;strokeColor=default;align=center;verticalAlign=middle;fontFamily=Helvetica;fontSize=12;fontColor=default;labelBackgroundColor=default;startSize=8;endArrow=classic;endSize=8;" parent="WIyWlLk6GJQsqaUBKTNV-1" source="N1MgPbPK6xEOm-_JlRt1-28" target="N1MgPbPK6xEOm-_JlRt1-56" edge="1">
          <mxGeometry relative="1" as="geometry">
            <Array as="points">
              <mxPoint x="-150" y="1876" />
            </Array>
          </mxGeometry>
        </mxCell>
        <mxCell id="N1MgPbPK6xEOm-_JlRt1-24" style="edgeStyle=elbowEdgeStyle;rounded=0;orthogonalLoop=1;jettySize=auto;elbow=vertical;html=1;strokeColor=default;align=center;verticalAlign=middle;fontFamily=Helvetica;fontSize=12;fontColor=default;labelBackgroundColor=default;startSize=8;endArrow=classic;endSize=8;" parent="WIyWlLk6GJQsqaUBKTNV-1" source="N1MgPbPK6xEOm-_JlRt1-28" target="N1MgPbPK6xEOm-_JlRt1-60" edge="1">
          <mxGeometry relative="1" as="geometry">
            <Array as="points">
              <mxPoint x="-70" y="1876" />
            </Array>
          </mxGeometry>
        </mxCell>
        <mxCell id="N1MgPbPK6xEOm-_JlRt1-25" style="edgeStyle=elbowEdgeStyle;rounded=0;orthogonalLoop=1;jettySize=auto;elbow=vertical;html=1;strokeColor=default;align=center;verticalAlign=middle;fontFamily=Helvetica;fontSize=12;fontColor=default;labelBackgroundColor=default;startSize=8;endArrow=classic;endSize=8;" parent="WIyWlLk6GJQsqaUBKTNV-1" source="N1MgPbPK6xEOm-_JlRt1-28" target="N1MgPbPK6xEOm-_JlRt1-48" edge="1">
          <mxGeometry relative="1" as="geometry">
            <Array as="points">
              <mxPoint x="-240" y="2056" />
            </Array>
          </mxGeometry>
        </mxCell>
        <mxCell id="N1MgPbPK6xEOm-_JlRt1-26" style="edgeStyle=elbowEdgeStyle;rounded=0;orthogonalLoop=1;jettySize=auto;elbow=vertical;html=1;strokeColor=default;align=center;verticalAlign=middle;fontFamily=Helvetica;fontSize=12;fontColor=default;labelBackgroundColor=default;startSize=8;endArrow=classic;endSize=8;" parent="WIyWlLk6GJQsqaUBKTNV-1" source="N1MgPbPK6xEOm-_JlRt1-28" target="N1MgPbPK6xEOm-_JlRt1-52" edge="1">
          <mxGeometry relative="1" as="geometry">
            <Array as="points">
              <mxPoint x="-120" y="2056" />
            </Array>
          </mxGeometry>
        </mxCell>
        <mxCell id="N1MgPbPK6xEOm-_JlRt1-27" style="edgeStyle=elbowEdgeStyle;rounded=0;orthogonalLoop=1;jettySize=auto;html=1;strokeColor=default;align=center;verticalAlign=middle;fontFamily=Helvetica;fontSize=12;fontColor=default;labelBackgroundColor=default;startSize=8;endArrow=classic;endSize=8;elbow=vertical;" parent="WIyWlLk6GJQsqaUBKTNV-1" source="N1MgPbPK6xEOm-_JlRt1-28" target="N1MgPbPK6xEOm-_JlRt1-115" edge="1">
          <mxGeometry relative="1" as="geometry">
            <Array as="points">
              <mxPoint x="-240" y="2240" />
            </Array>
          </mxGeometry>
        </mxCell>
        <mxCell id="N1MgPbPK6xEOm-_JlRt1-28" value="CommercialBuildings" style="swimlane;fontStyle=1;align=center;verticalAlign=top;childLayout=stackLayout;horizontal=1;startSize=38;horizontalStack=0;resizeParent=1;resizeParentMax=0;resizeLast=0;collapsible=1;marginBottom=0;whiteSpace=wrap;html=1;autosize=1;" parent="WIyWlLk6GJQsqaUBKTNV-1" vertex="1">
          <mxGeometry x="-494" y="1376" width="160" height="106" as="geometry">
            <mxRectangle x="456" y="270" width="100" height="30" as="alternateBounds" />
          </mxGeometry>
        </mxCell>
        <mxCell id="N1MgPbPK6xEOm-_JlRt1-29" value="+&amp;nbsp;" style="text;strokeColor=none;fillColor=none;align=left;verticalAlign=top;spacingLeft=4;spacingRight=4;overflow=hidden;rotatable=0;points=[[0,0.5],[1,0.5]];portConstraint=eastwest;whiteSpace=wrap;html=1;autosize=1;" parent="N1MgPbPK6xEOm-_JlRt1-28" vertex="1">
          <mxGeometry y="38" width="160" height="30" as="geometry" />
        </mxCell>
        <mxCell id="N1MgPbPK6xEOm-_JlRt1-30" value="" style="line;strokeWidth=1;fillColor=none;align=left;verticalAlign=middle;spacingTop=-1;spacingLeft=3;spacingRight=3;rotatable=0;labelPosition=right;points=[];portConstraint=eastwest;strokeColor=inherit;" parent="N1MgPbPK6xEOm-_JlRt1-28" vertex="1">
          <mxGeometry y="68" width="160" height="8" as="geometry" />
        </mxCell>
        <mxCell id="N1MgPbPK6xEOm-_JlRt1-31" value="-&amp;nbsp;" style="text;strokeColor=none;fillColor=none;align=left;verticalAlign=top;spacingLeft=4;spacingRight=4;overflow=hidden;rotatable=0;points=[[0,0.5],[1,0.5]];portConstraint=eastwest;whiteSpace=wrap;html=1;autosize=1;" parent="N1MgPbPK6xEOm-_JlRt1-28" vertex="1">
          <mxGeometry y="76" width="160" height="30" as="geometry" />
        </mxCell>
        <mxCell id="N1MgPbPK6xEOm-_JlRt1-32" value="Office&lt;span style=&quot;color: rgba(0, 0, 0, 0); font-family: monospace; font-size: 0px; font-weight: 400; text-align: start; text-wrap: nowrap;&quot;&gt;%3CmxGraphModel%3E%3Croot%3E%3CmxCell%20id%3D%220%22%2F%3E%3CmxCell%20id%3D%221%22%20parent%3D%220%22%2F%3E%3CmxCell%20id%3D%222%22%20value%3D%22Classname%22%20style%3D%22swimlane%3BfontStyle%3D1%3Balign%3Dcenter%3BverticalAlign%3Dtop%3BchildLayout%3DstackLayout%3Bhorizontal%3D1%3BstartSize%3D26%3BhorizontalStack%3D0%3BresizeParent%3D1%3BresizeParentMax%3D0%3BresizeLast%3D0%3Bcollapsible%3D1%3BmarginBottom%3D0%3BwhiteSpace%3Dwrap%3Bhtml%3D1%3Bautosize%3D1%3B%22%20vertex%3D%221%22%20parent%3D%221%22%3E%3CmxGeometry%20x%3D%22270%22%20y%3D%22790%22%20width%3D%22160%22%20height%3D%2294%22%20as%3D%22geometry%22%3E%3CmxRectangle%20x%3D%22456%22%20y%3D%22270%22%20width%3D%22100%22%20height%3D%2230%22%20as%3D%22alternateBounds%22%2F%3E%3C%2FmxGeometry%3E%3C%2FmxCell%3E%3CmxCell%20id%3D%223%22%20value%3D%22%2B%26amp%3Bnbsp%3B%22%20style%3D%22text%3BstrokeColor%3Dnone%3BfillColor%3Dnone%3Balign%3Dleft%3BverticalAlign%3Dtop%3BspacingLeft%3D4%3BspacingRight%3D4%3Boverflow%3Dhidden%3Brotatable%3D0%3Bpoints%3D%5B%5B0%2C0.5%5D%2C%5B1%2C0.5%5D%5D%3BportConstraint%3Deastwest%3BwhiteSpace%3Dwrap%3Bhtml%3D1%3Bautosize%3D1%3B%22%20vertex%3D%221%22%20parent%3D%222%22%3E%3CmxGeometry%20y%3D%2226%22%20width%3D%22160%22%20height%3D%2230%22%20as%3D%22geometry%22%2F%3E%3C%2FmxCell%3E%3CmxCell%20id%3D%224%22%20value%3D%22%22%20style%3D%22line%3BstrokeWidth%3D1%3BfillColor%3Dnone%3Balign%3Dleft%3BverticalAlign%3Dmiddle%3BspacingTop%3D-1%3BspacingLeft%3D3%3BspacingRight%3D3%3Brotatable%3D0%3BlabelPosition%3Dright%3Bpoints%3D%5B%5D%3BportConstraint%3Deastwest%3BstrokeColor%3Dinherit%3B%22%20vertex%3D%221%22%20parent%3D%222%22%3E%3CmxGeometry%20y%3D%2256%22%20width%3D%22160%22%20height%3D%228%22%20as%3D%22geometry%22%2F%3E%3C%2FmxCell%3E%3CmxCell%20id%3D%225%22%20value%3D%22-%26amp%3Bnbsp%3B%22%20style%3D%22text%3BstrokeColor%3Dnone%3BfillColor%3Dnone%3Balign%3Dleft%3BverticalAlign%3Dtop%3BspacingLeft%3D4%3BspacingRight%3D4%3Boverflow%3Dhidden%3Brotatable%3D0%3Bpoints%3D%5B%5B0%2C0.5%5D%2C%5B1%2C0.5%5D%5D%3BportConstraint%3Deastwest%3BwhiteSpace%3Dwrap%3Bhtml%3D1%3Bautosize%3D1%3B%22%20vertex%3D%221%22%20parent%3D%222%22%3E%3CmxGeometry%20y%3D%2264%22%20width%3D%22160%22%20height%3D%2230%22%20as%3D%22geometry%22%2F%3E%3C%2FmxCell%3E%3C%2Froot%3E%3C%2FmxGraphModel%&lt;/span&gt;" style="swimlane;fontStyle=1;align=center;verticalAlign=top;childLayout=stackLayout;horizontal=1;startSize=38;horizontalStack=0;resizeParent=1;resizeParentMax=0;resizeLast=0;collapsible=1;marginBottom=0;whiteSpace=wrap;html=1;autosize=1;" parent="WIyWlLk6GJQsqaUBKTNV-1" vertex="1">
          <mxGeometry x="-155" y="1733" width="160" height="106" as="geometry">
            <mxRectangle x="456" y="270" width="100" height="30" as="alternateBounds" />
          </mxGeometry>
        </mxCell>
        <mxCell id="N1MgPbPK6xEOm-_JlRt1-33" value="+&amp;nbsp;" style="text;strokeColor=none;fillColor=none;align=left;verticalAlign=top;spacingLeft=4;spacingRight=4;overflow=hidden;rotatable=0;points=[[0,0.5],[1,0.5]];portConstraint=eastwest;whiteSpace=wrap;html=1;autosize=1;" parent="N1MgPbPK6xEOm-_JlRt1-32" vertex="1">
          <mxGeometry y="38" width="160" height="30" as="geometry" />
        </mxCell>
        <mxCell id="N1MgPbPK6xEOm-_JlRt1-34" value="" style="line;strokeWidth=1;fillColor=none;align=left;verticalAlign=middle;spacingTop=-1;spacingLeft=3;spacingRight=3;rotatable=0;labelPosition=right;points=[];portConstraint=eastwest;strokeColor=inherit;" parent="N1MgPbPK6xEOm-_JlRt1-32" vertex="1">
          <mxGeometry y="68" width="160" height="8" as="geometry" />
        </mxCell>
        <mxCell id="N1MgPbPK6xEOm-_JlRt1-35" value="-&amp;nbsp;" style="text;strokeColor=none;fillColor=none;align=left;verticalAlign=top;spacingLeft=4;spacingRight=4;overflow=hidden;rotatable=0;points=[[0,0.5],[1,0.5]];portConstraint=eastwest;whiteSpace=wrap;html=1;autosize=1;" parent="N1MgPbPK6xEOm-_JlRt1-32" vertex="1">
          <mxGeometry y="76" width="160" height="30" as="geometry" />
        </mxCell>
        <mxCell id="N1MgPbPK6xEOm-_JlRt1-36" value="Hospital" style="swimlane;fontStyle=1;align=center;verticalAlign=top;childLayout=stackLayout;horizontal=1;startSize=38;horizontalStack=0;resizeParent=1;resizeParentMax=0;resizeLast=0;collapsible=1;marginBottom=0;whiteSpace=wrap;html=1;autosize=1;" parent="WIyWlLk6GJQsqaUBKTNV-1" vertex="1">
          <mxGeometry x="-154" y="1546" width="160" height="106" as="geometry">
            <mxRectangle x="456" y="270" width="100" height="30" as="alternateBounds" />
          </mxGeometry>
        </mxCell>
        <mxCell id="N1MgPbPK6xEOm-_JlRt1-37" value="+&amp;nbsp;" style="text;strokeColor=none;fillColor=none;align=left;verticalAlign=top;spacingLeft=4;spacingRight=4;overflow=hidden;rotatable=0;points=[[0,0.5],[1,0.5]];portConstraint=eastwest;whiteSpace=wrap;html=1;autosize=1;" parent="N1MgPbPK6xEOm-_JlRt1-36" vertex="1">
          <mxGeometry y="38" width="160" height="30" as="geometry" />
        </mxCell>
        <mxCell id="N1MgPbPK6xEOm-_JlRt1-38" value="" style="line;strokeWidth=1;fillColor=none;align=left;verticalAlign=middle;spacingTop=-1;spacingLeft=3;spacingRight=3;rotatable=0;labelPosition=right;points=[];portConstraint=eastwest;strokeColor=inherit;" parent="N1MgPbPK6xEOm-_JlRt1-36" vertex="1">
          <mxGeometry y="68" width="160" height="8" as="geometry" />
        </mxCell>
        <mxCell id="N1MgPbPK6xEOm-_JlRt1-39" value="-&amp;nbsp;" style="text;strokeColor=none;fillColor=none;align=left;verticalAlign=top;spacingLeft=4;spacingRight=4;overflow=hidden;rotatable=0;points=[[0,0.5],[1,0.5]];portConstraint=eastwest;whiteSpace=wrap;html=1;autosize=1;" parent="N1MgPbPK6xEOm-_JlRt1-36" vertex="1">
          <mxGeometry y="76" width="160" height="30" as="geometry" />
        </mxCell>
        <mxCell id="N1MgPbPK6xEOm-_JlRt1-40" value="&lt;div&gt;Necessity&lt;/div&gt;Healthcare" style="text;strokeColor=none;fillColor=none;html=1;align=center;verticalAlign=middle;whiteSpace=wrap;rounded=0;fontSize=16;" parent="WIyWlLk6GJQsqaUBKTNV-1" vertex="1">
          <mxGeometry x="-320" y="1584" width="60" height="30" as="geometry" />
        </mxCell>
        <mxCell id="N1MgPbPK6xEOm-_JlRt1-41" value="Workforce" style="text;strokeColor=none;fillColor=none;html=1;align=center;verticalAlign=middle;whiteSpace=wrap;rounded=0;fontSize=16;" parent="WIyWlLk6GJQsqaUBKTNV-1" vertex="1">
          <mxGeometry x="-320" y="1763" width="60" height="30" as="geometry" />
        </mxCell>
        <mxCell id="N1MgPbPK6xEOm-_JlRt1-42" value="Shopping District" style="text;strokeColor=none;fillColor=none;html=1;align=center;verticalAlign=middle;whiteSpace=wrap;rounded=0;fontSize=16;" parent="WIyWlLk6GJQsqaUBKTNV-1" vertex="1">
          <mxGeometry x="-320" y="1934" width="60" height="30" as="geometry" />
        </mxCell>
        <mxCell id="N1MgPbPK6xEOm-_JlRt1-43" value="ShoppingMall" style="swimlane;fontStyle=1;align=center;verticalAlign=top;childLayout=stackLayout;horizontal=1;startSize=38;horizontalStack=0;resizeParent=1;resizeParentMax=0;resizeLast=0;collapsible=1;marginBottom=0;whiteSpace=wrap;html=1;autosize=1;" parent="WIyWlLk6GJQsqaUBKTNV-1" vertex="1">
          <mxGeometry x="-155" y="1914" width="160" height="106" as="geometry">
            <mxRectangle x="456" y="270" width="100" height="30" as="alternateBounds" />
          </mxGeometry>
        </mxCell>
        <mxCell id="N1MgPbPK6xEOm-_JlRt1-44" value="+&amp;nbsp;" style="text;strokeColor=none;fillColor=none;align=left;verticalAlign=top;spacingLeft=4;spacingRight=4;overflow=hidden;rotatable=0;points=[[0,0.5],[1,0.5]];portConstraint=eastwest;whiteSpace=wrap;html=1;autosize=1;" parent="N1MgPbPK6xEOm-_JlRt1-43" vertex="1">
          <mxGeometry y="38" width="160" height="30" as="geometry" />
        </mxCell>
        <mxCell id="N1MgPbPK6xEOm-_JlRt1-45" value="" style="line;strokeWidth=1;fillColor=none;align=left;verticalAlign=middle;spacingTop=-1;spacingLeft=3;spacingRight=3;rotatable=0;labelPosition=right;points=[];portConstraint=eastwest;strokeColor=inherit;" parent="N1MgPbPK6xEOm-_JlRt1-43" vertex="1">
          <mxGeometry y="68" width="160" height="8" as="geometry" />
        </mxCell>
        <mxCell id="N1MgPbPK6xEOm-_JlRt1-46" value="-&amp;nbsp;" style="text;strokeColor=none;fillColor=none;align=left;verticalAlign=top;spacingLeft=4;spacingRight=4;overflow=hidden;rotatable=0;points=[[0,0.5],[1,0.5]];portConstraint=eastwest;whiteSpace=wrap;html=1;autosize=1;" parent="N1MgPbPK6xEOm-_JlRt1-43" vertex="1">
          <mxGeometry y="76" width="160" height="30" as="geometry" />
        </mxCell>
        <mxCell id="N1MgPbPK6xEOm-_JlRt1-47" value="Food" style="text;strokeColor=none;fillColor=none;html=1;align=center;verticalAlign=middle;whiteSpace=wrap;rounded=0;fontSize=16;" parent="WIyWlLk6GJQsqaUBKTNV-1" vertex="1">
          <mxGeometry x="-320" y="2120" width="60" height="30" as="geometry" />
        </mxCell>
        <mxCell id="N1MgPbPK6xEOm-_JlRt1-48" value="Restaurant" style="swimlane;fontStyle=1;align=center;verticalAlign=top;childLayout=stackLayout;horizontal=1;startSize=38;horizontalStack=0;resizeParent=1;resizeParentMax=0;resizeLast=0;collapsible=1;marginBottom=0;whiteSpace=wrap;html=1;autosize=1;" parent="WIyWlLk6GJQsqaUBKTNV-1" vertex="1">
          <mxGeometry x="-155" y="2094" width="160" height="106" as="geometry">
            <mxRectangle x="456" y="270" width="100" height="30" as="alternateBounds" />
          </mxGeometry>
        </mxCell>
        <mxCell id="N1MgPbPK6xEOm-_JlRt1-49" value="+&amp;nbsp;" style="text;strokeColor=none;fillColor=none;align=left;verticalAlign=top;spacingLeft=4;spacingRight=4;overflow=hidden;rotatable=0;points=[[0,0.5],[1,0.5]];portConstraint=eastwest;whiteSpace=wrap;html=1;autosize=1;" parent="N1MgPbPK6xEOm-_JlRt1-48" vertex="1">
          <mxGeometry y="38" width="160" height="30" as="geometry" />
        </mxCell>
        <mxCell id="N1MgPbPK6xEOm-_JlRt1-50" value="" style="line;strokeWidth=1;fillColor=none;align=left;verticalAlign=middle;spacingTop=-1;spacingLeft=3;spacingRight=3;rotatable=0;labelPosition=right;points=[];portConstraint=eastwest;strokeColor=inherit;" parent="N1MgPbPK6xEOm-_JlRt1-48" vertex="1">
          <mxGeometry y="68" width="160" height="8" as="geometry" />
        </mxCell>
        <mxCell id="N1MgPbPK6xEOm-_JlRt1-51" value="-&amp;nbsp;" style="text;strokeColor=none;fillColor=none;align=left;verticalAlign=top;spacingLeft=4;spacingRight=4;overflow=hidden;rotatable=0;points=[[0,0.5],[1,0.5]];portConstraint=eastwest;whiteSpace=wrap;html=1;autosize=1;" parent="N1MgPbPK6xEOm-_JlRt1-48" vertex="1">
          <mxGeometry y="76" width="160" height="30" as="geometry" />
        </mxCell>
        <mxCell id="N1MgPbPK6xEOm-_JlRt1-52" value="Deli" style="swimlane;fontStyle=1;align=center;verticalAlign=top;childLayout=stackLayout;horizontal=1;startSize=38;horizontalStack=0;resizeParent=1;resizeParentMax=0;resizeLast=0;collapsible=1;marginBottom=0;whiteSpace=wrap;html=1;autosize=1;" parent="WIyWlLk6GJQsqaUBKTNV-1" vertex="1">
          <mxGeometry x="44" y="2094" width="160" height="106" as="geometry">
            <mxRectangle x="456" y="270" width="100" height="30" as="alternateBounds" />
          </mxGeometry>
        </mxCell>
        <mxCell id="N1MgPbPK6xEOm-_JlRt1-53" value="+&amp;nbsp;" style="text;strokeColor=none;fillColor=none;align=left;verticalAlign=top;spacingLeft=4;spacingRight=4;overflow=hidden;rotatable=0;points=[[0,0.5],[1,0.5]];portConstraint=eastwest;whiteSpace=wrap;html=1;autosize=1;" parent="N1MgPbPK6xEOm-_JlRt1-52" vertex="1">
          <mxGeometry y="38" width="160" height="30" as="geometry" />
        </mxCell>
        <mxCell id="N1MgPbPK6xEOm-_JlRt1-54" value="" style="line;strokeWidth=1;fillColor=none;align=left;verticalAlign=middle;spacingTop=-1;spacingLeft=3;spacingRight=3;rotatable=0;labelPosition=right;points=[];portConstraint=eastwest;strokeColor=inherit;" parent="N1MgPbPK6xEOm-_JlRt1-52" vertex="1">
          <mxGeometry y="68" width="160" height="8" as="geometry" />
        </mxCell>
        <mxCell id="N1MgPbPK6xEOm-_JlRt1-55" value="-&amp;nbsp;" style="text;strokeColor=none;fillColor=none;align=left;verticalAlign=top;spacingLeft=4;spacingRight=4;overflow=hidden;rotatable=0;points=[[0,0.5],[1,0.5]];portConstraint=eastwest;whiteSpace=wrap;html=1;autosize=1;" parent="N1MgPbPK6xEOm-_JlRt1-52" vertex="1">
          <mxGeometry y="76" width="160" height="30" as="geometry" />
        </mxCell>
        <mxCell id="N1MgPbPK6xEOm-_JlRt1-56" value="GroceryStore&lt;span style=&quot;color: rgba(0, 0, 0, 0); font-family: monospace; font-size: 0px; font-weight: 400; text-align: start; text-wrap: nowrap;&quot;&gt;%3CmxGraphModel%3E%3Croot%3E%3CmxCell%20id%3D%220%22%2F%3E%3CmxCell%20id%3D%221%22%20parent%3D%220%22%2F%3E%3CmxCell%20id%3D%222%22%20value%3D%22Classname%22%20style%3D%22swimlane%3BfontStyle%3D1%3Balign%3Dcenter%3BverticalAlign%3Dtop%3BchildLayout%3DstackLayout%3Bhorizontal%3D1%3BstartSize%3D26%3BhorizontalStack%3D0%3BresizeParent%3D1%3BresizeParentMax%3D0%3BresizeLast%3D0%3Bcollapsible%3D1%3BmarginBottom%3D0%3BwhiteSpace%3Dwrap%3Bhtml%3D1%3Bautosize%3D1%3B%22%20vertex%3D%221%22%20parent%3D%221%22%3E%3CmxGeometry%20x%3D%22270%22%20y%3D%22790%22%20width%3D%22160%22%20height%3D%2294%22%20as%3D%22geometry%22%3E%3CmxRectangle%20x%3D%22456%22%20y%3D%22270%22%20width%3D%22100%22%20height%3D%2230%22%20as%3D%22alternateBounds%22%2F%3E%3C%2FmxGeometry%3E%3C%2FmxCell%3E%3CmxCell%20id%3D%223%22%20value%3D%22%2B%26amp%3Bnbsp%3B%22%20style%3D%22text%3BstrokeColor%3Dnone%3BfillColor%3Dnone%3Balign%3Dleft%3BverticalAlign%3Dtop%3BspacingLeft%3D4%3BspacingRight%3D4%3Boverflow%3Dhidden%3Brotatable%3D0%3Bpoints%3D%5B%5B0%2C0.5%5D%2C%5B1%2C0.5%5D%5D%3BportConstraint%3Deastwest%3BwhiteSpace%3Dwrap%3Bhtml%3D1%3Bautosize%3D1%3B%22%20vertex%3D%221%22%20parent%3D%222%22%3E%3CmxGeometry%20y%3D%2226%22%20width%3D%22160%22%20height%3D%2230%22%20as%3D%22geometry%22%2F%3E%3C%2FmxCell%3E%3CmxCell%20id%3D%224%22%20value%3D%22%22%20style%3D%22line%3BstrokeWidth%3D1%3BfillColor%3Dnone%3Balign%3Dleft%3BverticalAlign%3Dmiddle%3BspacingTop%3D-1%3BspacingLeft%3D3%3BspacingRight%3D3%3Brotatable%3D0%3BlabelPosition%3Dright%3Bpoints%3D%5B%5D%3BportConstraint%3Deastwest%3BstrokeColor%3Dinherit%3B%22%20vertex%3D%221%22%20parent%3D%222%22%3E%3CmxGeometry%20y%3D%2256%22%20width%3D%22160%22%20height%3D%228%22%20as%3D%22geometry%22%2F%3E%3C%2FmxCell%3E%3CmxCell%20id%3D%225%22%20value%3D%22-%26amp%3Bnbsp%3B%22%20style%3D%22text%3BstrokeColor%3Dnone%3BfillColor%3Dnone%3Balign%3Dleft%3BverticalAlign%3Dtop%3BspacingLeft%3D4%3BspacingRight%3D4%3Boverflow%3Dhidden%3Brotatable%3D0%3Bpoints%3D%5B%5B0%2C0.5%5D%2C%5B1%2C0.5%5D%5D%3BportConstraint%3Deastwest%3BwhiteSpace%3Dwrap%3Bhtml%3D1%3Bautosize%3D1%3B%22%20vertex%3D%221%22%20parent%3D%222%22%3E%3CmxGeometry%20y%3D%2264%22%20width%3D%22160%22%20height%3D%2230%22%20as%3D%22geometry%22%2F%3E%3C%2FmxCell%3E%3C%2Froot%3E%3C%2FmxGraphModel%3E&lt;/span&gt;" style="swimlane;fontStyle=1;align=center;verticalAlign=top;childLayout=stackLayout;horizontal=1;startSize=38;horizontalStack=0;resizeParent=1;resizeParentMax=0;resizeLast=0;collapsible=1;marginBottom=0;whiteSpace=wrap;html=1;autosize=1;" parent="WIyWlLk6GJQsqaUBKTNV-1" vertex="1">
          <mxGeometry x="43.5" y="1914" width="160" height="106" as="geometry">
            <mxRectangle x="456" y="270" width="100" height="30" as="alternateBounds" />
          </mxGeometry>
        </mxCell>
        <mxCell id="N1MgPbPK6xEOm-_JlRt1-57" value="+&amp;nbsp;" style="text;strokeColor=none;fillColor=none;align=left;verticalAlign=top;spacingLeft=4;spacingRight=4;overflow=hidden;rotatable=0;points=[[0,0.5],[1,0.5]];portConstraint=eastwest;whiteSpace=wrap;html=1;autosize=1;" parent="N1MgPbPK6xEOm-_JlRt1-56" vertex="1">
          <mxGeometry y="38" width="160" height="30" as="geometry" />
        </mxCell>
        <mxCell id="N1MgPbPK6xEOm-_JlRt1-58" value="" style="line;strokeWidth=1;fillColor=none;align=left;verticalAlign=middle;spacingTop=-1;spacingLeft=3;spacingRight=3;rotatable=0;labelPosition=right;points=[];portConstraint=eastwest;strokeColor=inherit;" parent="N1MgPbPK6xEOm-_JlRt1-56" vertex="1">
          <mxGeometry y="68" width="160" height="8" as="geometry" />
        </mxCell>
        <mxCell id="N1MgPbPK6xEOm-_JlRt1-59" value="-&amp;nbsp;" style="text;strokeColor=none;fillColor=none;align=left;verticalAlign=top;spacingLeft=4;spacingRight=4;overflow=hidden;rotatable=0;points=[[0,0.5],[1,0.5]];portConstraint=eastwest;whiteSpace=wrap;html=1;autosize=1;" parent="N1MgPbPK6xEOm-_JlRt1-56" vertex="1">
          <mxGeometry y="76" width="160" height="30" as="geometry" />
        </mxCell>
        <mxCell id="N1MgPbPK6xEOm-_JlRt1-60" value="Shop" style="swimlane;fontStyle=1;align=center;verticalAlign=top;childLayout=stackLayout;horizontal=1;startSize=38;horizontalStack=0;resizeParent=1;resizeParentMax=0;resizeLast=0;collapsible=1;marginBottom=0;whiteSpace=wrap;html=1;autosize=1;" parent="WIyWlLk6GJQsqaUBKTNV-1" vertex="1">
          <mxGeometry x="240" y="1914" width="160" height="106" as="geometry">
            <mxRectangle x="456" y="270" width="100" height="30" as="alternateBounds" />
          </mxGeometry>
        </mxCell>
        <mxCell id="N1MgPbPK6xEOm-_JlRt1-61" value="+&amp;nbsp;" style="text;strokeColor=none;fillColor=none;align=left;verticalAlign=top;spacingLeft=4;spacingRight=4;overflow=hidden;rotatable=0;points=[[0,0.5],[1,0.5]];portConstraint=eastwest;whiteSpace=wrap;html=1;autosize=1;" parent="N1MgPbPK6xEOm-_JlRt1-60" vertex="1">
          <mxGeometry y="38" width="160" height="30" as="geometry" />
        </mxCell>
        <mxCell id="N1MgPbPK6xEOm-_JlRt1-62" value="" style="line;strokeWidth=1;fillColor=none;align=left;verticalAlign=middle;spacingTop=-1;spacingLeft=3;spacingRight=3;rotatable=0;labelPosition=right;points=[];portConstraint=eastwest;strokeColor=inherit;" parent="N1MgPbPK6xEOm-_JlRt1-60" vertex="1">
          <mxGeometry y="68" width="160" height="8" as="geometry" />
        </mxCell>
        <mxCell id="N1MgPbPK6xEOm-_JlRt1-63" value="-&amp;nbsp;" style="text;strokeColor=none;fillColor=none;align=left;verticalAlign=top;spacingLeft=4;spacingRight=4;overflow=hidden;rotatable=0;points=[[0,0.5],[1,0.5]];portConstraint=eastwest;whiteSpace=wrap;html=1;autosize=1;" parent="N1MgPbPK6xEOm-_JlRt1-60" vertex="1">
          <mxGeometry y="76" width="160" height="30" as="geometry" />
        </mxCell>
        <mxCell id="N1MgPbPK6xEOm-_JlRt1-64" style="edgeStyle=elbowEdgeStyle;rounded=0;orthogonalLoop=1;jettySize=auto;elbow=vertical;html=1;strokeColor=default;align=center;verticalAlign=middle;fontFamily=Helvetica;fontSize=12;fontColor=default;labelBackgroundColor=default;startSize=8;endArrow=classic;endSize=8;" parent="WIyWlLk6GJQsqaUBKTNV-1" source="N1MgPbPK6xEOm-_JlRt1-65" target="N1MgPbPK6xEOm-_JlRt1-2" edge="1">
          <mxGeometry relative="1" as="geometry" />
        </mxCell>
        <mxCell id="N1MgPbPK6xEOm-_JlRt1-65" value="Virus" style="swimlane;fontStyle=1;align=center;verticalAlign=top;childLayout=stackLayout;horizontal=1;startSize=38;horizontalStack=0;resizeParent=1;resizeParentMax=0;resizeLast=0;collapsible=1;marginBottom=0;whiteSpace=wrap;html=1;autosize=1;" parent="WIyWlLk6GJQsqaUBKTNV-1" vertex="1">
          <mxGeometry x="-330" y="900" width="450" height="166" as="geometry">
            <mxRectangle x="456" y="270" width="100" height="30" as="alternateBounds" />
          </mxGeometry>
        </mxCell>
        <mxCell id="N1MgPbPK6xEOm-_JlRt1-66" value="+ MutationPhase1 : GameObject&lt;div&gt;+ MutationPhase2 : GameObject&lt;/div&gt;&lt;div&gt;+ MutationPhase3 : GameObject&lt;/div&gt;" style="text;strokeColor=none;fillColor=none;align=left;verticalAlign=top;spacingLeft=4;spacingRight=4;overflow=hidden;rotatable=0;points=[[0,0.5],[1,0.5]];portConstraint=eastwest;whiteSpace=wrap;html=1;autosize=1;" parent="N1MgPbPK6xEOm-_JlRt1-65" vertex="1">
          <mxGeometry y="38" width="450" height="60" as="geometry" />
        </mxCell>
        <mxCell id="N1MgPbPK6xEOm-_JlRt1-67" value="" style="line;strokeWidth=1;fillColor=none;align=left;verticalAlign=middle;spacingTop=-1;spacingLeft=3;spacingRight=3;rotatable=0;labelPosition=right;points=[];portConstraint=eastwest;strokeColor=inherit;" parent="N1MgPbPK6xEOm-_JlRt1-65" vertex="1">
          <mxGeometry y="98" width="450" height="8" as="geometry" />
        </mxCell>
        <mxCell id="N1MgPbPK6xEOm-_JlRt1-68" value="- MutationPhase()&lt;div&gt;- IncreaseVirusStat (float increaseTimePercent, float increaseInfectRatePercent)&lt;br&gt;&lt;div&gt;- EndGamePunishment()&lt;/div&gt;&lt;/div&gt;" style="text;strokeColor=none;fillColor=none;align=left;verticalAlign=top;spacingLeft=4;spacingRight=4;overflow=hidden;rotatable=0;points=[[0,0.5],[1,0.5]];portConstraint=eastwest;whiteSpace=wrap;html=1;autosize=1;" parent="N1MgPbPK6xEOm-_JlRt1-65" vertex="1">
          <mxGeometry y="106" width="450" height="60" as="geometry" />
        </mxCell>
        <mxCell id="N1MgPbPK6xEOm-_JlRt1-69" style="edgeStyle=none;curved=1;rounded=0;orthogonalLoop=1;jettySize=auto;html=1;fontSize=12;startSize=8;endSize=8;" parent="WIyWlLk6GJQsqaUBKTNV-1" source="N1MgPbPK6xEOm-_JlRt1-70" target="N1MgPbPK6xEOm-_JlRt1-2" edge="1">
          <mxGeometry relative="1" as="geometry" />
        </mxCell>
        <mxCell id="N1MgPbPK6xEOm-_JlRt1-70" value="Mayor" style="swimlane;fontStyle=1;align=center;verticalAlign=top;childLayout=stackLayout;horizontal=1;startSize=38;horizontalStack=0;resizeParent=1;resizeParentMax=0;resizeLast=0;collapsible=1;marginBottom=0;whiteSpace=wrap;html=1;autosize=1;" parent="WIyWlLk6GJQsqaUBKTNV-1" vertex="1">
          <mxGeometry x="-660" y="690" width="160" height="106" as="geometry">
            <mxRectangle x="456" y="270" width="100" height="30" as="alternateBounds" />
          </mxGeometry>
        </mxCell>
        <mxCell id="N1MgPbPK6xEOm-_JlRt1-71" value="+&amp;nbsp;" style="text;strokeColor=none;fillColor=none;align=left;verticalAlign=top;spacingLeft=4;spacingRight=4;overflow=hidden;rotatable=0;points=[[0,0.5],[1,0.5]];portConstraint=eastwest;whiteSpace=wrap;html=1;autosize=1;" parent="N1MgPbPK6xEOm-_JlRt1-70" vertex="1">
          <mxGeometry y="38" width="160" height="30" as="geometry" />
        </mxCell>
        <mxCell id="N1MgPbPK6xEOm-_JlRt1-72" value="" style="line;strokeWidth=1;fillColor=none;align=left;verticalAlign=middle;spacingTop=-1;spacingLeft=3;spacingRight=3;rotatable=0;labelPosition=right;points=[];portConstraint=eastwest;strokeColor=inherit;" parent="N1MgPbPK6xEOm-_JlRt1-70" vertex="1">
          <mxGeometry y="68" width="160" height="8" as="geometry" />
        </mxCell>
        <mxCell id="N1MgPbPK6xEOm-_JlRt1-73" value="- Lockdown()" style="text;strokeColor=none;fillColor=none;align=left;verticalAlign=top;spacingLeft=4;spacingRight=4;overflow=hidden;rotatable=0;points=[[0,0.5],[1,0.5]];portConstraint=eastwest;whiteSpace=wrap;html=1;autosize=1;" parent="N1MgPbPK6xEOm-_JlRt1-70" vertex="1">
          <mxGeometry y="76" width="160" height="30" as="geometry" />
        </mxCell>
        <mxCell id="N1MgPbPK6xEOm-_JlRt1-74" value="TurnBasedCycle" style="swimlane;fontStyle=1;align=center;verticalAlign=top;childLayout=stackLayout;horizontal=1;startSize=38;horizontalStack=0;resizeParent=1;resizeParentMax=0;resizeLast=0;collapsible=1;marginBottom=0;whiteSpace=wrap;html=1;autosize=1;" parent="WIyWlLk6GJQsqaUBKTNV-1" vertex="1">
          <mxGeometry x="190" y="700" width="170" height="136" as="geometry">
            <mxRectangle x="456" y="270" width="100" height="30" as="alternateBounds" />
          </mxGeometry>
        </mxCell>
        <mxCell id="N1MgPbPK6xEOm-_JlRt1-75" value="+ GameTimer : TimerScript" style="text;strokeColor=none;fillColor=none;align=left;verticalAlign=top;spacingLeft=4;spacingRight=4;overflow=hidden;rotatable=0;points=[[0,0.5],[1,0.5]];portConstraint=eastwest;whiteSpace=wrap;html=1;autosize=1;" parent="N1MgPbPK6xEOm-_JlRt1-74" vertex="1">
          <mxGeometry y="38" width="170" height="30" as="geometry" />
        </mxCell>
        <mxCell id="N1MgPbPK6xEOm-_JlRt1-76" value="" style="line;strokeWidth=1;fillColor=none;align=left;verticalAlign=middle;spacingTop=-1;spacingLeft=3;spacingRight=3;rotatable=0;labelPosition=right;points=[];portConstraint=eastwest;strokeColor=inherit;" parent="N1MgPbPK6xEOm-_JlRt1-74" vertex="1">
          <mxGeometry y="68" width="170" height="8" as="geometry" />
        </mxCell>
        <mxCell id="N1MgPbPK6xEOm-_JlRt1-77" value="&lt;div&gt;- DayTimer(1 min)&lt;/div&gt;&lt;div&gt;- NightTimer(5 min)&lt;/div&gt;- ChangeTimeOfDay()" style="text;strokeColor=none;fillColor=none;align=left;verticalAlign=top;spacingLeft=4;spacingRight=4;overflow=hidden;rotatable=0;points=[[0,0.5],[1,0.5]];portConstraint=eastwest;whiteSpace=wrap;html=1;autosize=1;" parent="N1MgPbPK6xEOm-_JlRt1-74" vertex="1">
          <mxGeometry y="76" width="170" height="60" as="geometry" />
        </mxCell>
        <mxCell id="N1MgPbPK6xEOm-_JlRt1-78" style="edgeStyle=elbowEdgeStyle;rounded=0;orthogonalLoop=1;jettySize=auto;html=1;strokeColor=default;align=center;verticalAlign=middle;fontFamily=Helvetica;fontSize=12;fontColor=default;labelBackgroundColor=default;startSize=8;endArrow=classic;endSize=8;entryX=1;entryY=0.5;entryDx=0;entryDy=0;" parent="WIyWlLk6GJQsqaUBKTNV-1" source="N1MgPbPK6xEOm-_JlRt1-79" target="N1MgPbPK6xEOm-_JlRt1-3" edge="1">
          <mxGeometry relative="1" as="geometry">
            <Array as="points">
              <mxPoint x="-380" y="1080" />
            </Array>
          </mxGeometry>
        </mxCell>
        <mxCell id="N1MgPbPK6xEOm-_JlRt1-79" value="SpontaneousHappenings" style="swimlane;fontStyle=1;align=center;verticalAlign=top;childLayout=stackLayout;horizontal=1;startSize=38;horizontalStack=0;resizeParent=1;resizeParentMax=0;resizeLast=0;collapsible=1;marginBottom=0;whiteSpace=wrap;html=1;autosize=1;" parent="WIyWlLk6GJQsqaUBKTNV-1" vertex="1">
          <mxGeometry x="-330" y="1086" width="180" height="136" as="geometry">
            <mxRectangle x="456" y="270" width="100" height="30" as="alternateBounds" />
          </mxGeometry>
        </mxCell>
        <mxCell id="N1MgPbPK6xEOm-_JlRt1-80" value="+&amp;nbsp;" style="text;strokeColor=none;fillColor=none;align=left;verticalAlign=top;spacingLeft=4;spacingRight=4;overflow=hidden;rotatable=0;points=[[0,0.5],[1,0.5]];portConstraint=eastwest;whiteSpace=wrap;html=1;autosize=1;" parent="N1MgPbPK6xEOm-_JlRt1-79" vertex="1">
          <mxGeometry y="38" width="180" height="30" as="geometry" />
        </mxCell>
        <mxCell id="N1MgPbPK6xEOm-_JlRt1-81" value="" style="line;strokeWidth=1;fillColor=none;align=left;verticalAlign=middle;spacingTop=-1;spacingLeft=3;spacingRight=3;rotatable=0;labelPosition=right;points=[];portConstraint=eastwest;strokeColor=inherit;" parent="N1MgPbPK6xEOm-_JlRt1-79" vertex="1">
          <mxGeometry y="68" width="180" height="8" as="geometry" />
        </mxCell>
        <mxCell id="N1MgPbPK6xEOm-_JlRt1-82" value="- Concert()&lt;div&gt;- HospitalOverload()&lt;/div&gt;&lt;div&gt;- EconomicDownturn()&lt;/div&gt;" style="text;strokeColor=none;fillColor=none;align=left;verticalAlign=top;spacingLeft=4;spacingRight=4;overflow=hidden;rotatable=0;points=[[0,0.5],[1,0.5]];portConstraint=eastwest;whiteSpace=wrap;html=1;autosize=1;" parent="N1MgPbPK6xEOm-_JlRt1-79" vertex="1">
          <mxGeometry y="76" width="180" height="60" as="geometry" />
        </mxCell>
        <mxCell id="N1MgPbPK6xEOm-_JlRt1-83" style="edgeStyle=elbowEdgeStyle;rounded=0;orthogonalLoop=1;jettySize=auto;elbow=vertical;html=1;strokeColor=default;align=center;verticalAlign=middle;fontFamily=Helvetica;fontSize=12;fontColor=default;labelBackgroundColor=default;startSize=8;endArrow=classic;endSize=8;" parent="WIyWlLk6GJQsqaUBKTNV-1" source="N1MgPbPK6xEOm-_JlRt1-84" target="N1MgPbPK6xEOm-_JlRt1-93" edge="1">
          <mxGeometry relative="1" as="geometry" />
        </mxCell>
        <mxCell id="N1MgPbPK6xEOm-_JlRt1-84" value="HUD" style="swimlane;fontStyle=1;align=center;verticalAlign=top;childLayout=stackLayout;horizontal=1;startSize=38;horizontalStack=0;resizeParent=1;resizeParentMax=0;resizeLast=0;collapsible=1;marginBottom=0;whiteSpace=wrap;html=1;autosize=1;" parent="WIyWlLk6GJQsqaUBKTNV-1" vertex="1">
          <mxGeometry x="-1150" y="900" width="220" height="146" as="geometry">
            <mxRectangle x="456" y="270" width="100" height="30" as="alternateBounds" />
          </mxGeometry>
        </mxCell>
        <mxCell id="N1MgPbPK6xEOm-_JlRt1-85" value="+ economyHealth : int&lt;div&gt;+ infectionRatePercent : int&lt;/div&gt;&lt;div&gt;+ deathRatePercent : int&lt;/div&gt;&lt;div&gt;+ population : int [i.e. current / total]&lt;/div&gt;" style="text;strokeColor=none;fillColor=none;align=left;verticalAlign=top;spacingLeft=4;spacingRight=4;overflow=hidden;rotatable=0;points=[[0,0.5],[1,0.5]];portConstraint=eastwest;whiteSpace=wrap;html=1;autosize=1;" parent="N1MgPbPK6xEOm-_JlRt1-84" vertex="1">
          <mxGeometry y="38" width="220" height="70" as="geometry" />
        </mxCell>
        <mxCell id="N1MgPbPK6xEOm-_JlRt1-86" value="" style="line;strokeWidth=1;fillColor=none;align=left;verticalAlign=middle;spacingTop=-1;spacingLeft=3;spacingRight=3;rotatable=0;labelPosition=right;points=[];portConstraint=eastwest;strokeColor=inherit;" parent="N1MgPbPK6xEOm-_JlRt1-84" vertex="1">
          <mxGeometry y="108" width="220" height="8" as="geometry" />
        </mxCell>
        <mxCell id="N1MgPbPK6xEOm-_JlRt1-87" value="-&amp;nbsp;" style="text;strokeColor=none;fillColor=none;align=left;verticalAlign=top;spacingLeft=4;spacingRight=4;overflow=hidden;rotatable=0;points=[[0,0.5],[1,0.5]];portConstraint=eastwest;whiteSpace=wrap;html=1;autosize=1;" parent="N1MgPbPK6xEOm-_JlRt1-84" vertex="1">
          <mxGeometry y="116" width="220" height="30" as="geometry" />
        </mxCell>
        <mxCell id="N1MgPbPK6xEOm-_JlRt1-88" style="edgeStyle=elbowEdgeStyle;rounded=0;orthogonalLoop=1;jettySize=auto;html=1;strokeColor=default;align=center;verticalAlign=middle;fontFamily=Helvetica;fontSize=12;fontColor=default;labelBackgroundColor=default;startSize=8;endArrow=classic;endSize=8;" parent="WIyWlLk6GJQsqaUBKTNV-1" source="N1MgPbPK6xEOm-_JlRt1-89" target="N1MgPbPK6xEOm-_JlRt1-93" edge="1">
          <mxGeometry relative="1" as="geometry" />
        </mxCell>
        <mxCell id="N1MgPbPK6xEOm-_JlRt1-89" value="Map" style="swimlane;fontStyle=1;align=center;verticalAlign=top;childLayout=stackLayout;horizontal=1;startSize=38;horizontalStack=0;resizeParent=1;resizeParentMax=0;resizeLast=0;collapsible=1;marginBottom=0;whiteSpace=wrap;html=1;autosize=1;" parent="WIyWlLk6GJQsqaUBKTNV-1" vertex="1">
          <mxGeometry x="-1140" y="1086" width="160" height="146" as="geometry">
            <mxRectangle x="456" y="270" width="100" height="30" as="alternateBounds" />
          </mxGeometry>
        </mxCell>
        <mxCell id="N1MgPbPK6xEOm-_JlRt1-90" value="+ Zone1 []&lt;div&gt;+ Zone2 []&lt;/div&gt;&lt;div&gt;+ Zone3 []&lt;/div&gt;&lt;div&gt;+ Zone4 []&lt;/div&gt;" style="text;strokeColor=none;fillColor=none;align=left;verticalAlign=top;spacingLeft=4;spacingRight=4;overflow=hidden;rotatable=0;points=[[0,0.5],[1,0.5]];portConstraint=eastwest;whiteSpace=wrap;html=1;autosize=1;" parent="N1MgPbPK6xEOm-_JlRt1-89" vertex="1">
          <mxGeometry y="38" width="160" height="70" as="geometry" />
        </mxCell>
        <mxCell id="N1MgPbPK6xEOm-_JlRt1-91" value="" style="line;strokeWidth=1;fillColor=none;align=left;verticalAlign=middle;spacingTop=-1;spacingLeft=3;spacingRight=3;rotatable=0;labelPosition=right;points=[];portConstraint=eastwest;strokeColor=inherit;" parent="N1MgPbPK6xEOm-_JlRt1-89" vertex="1">
          <mxGeometry y="108" width="160" height="8" as="geometry" />
        </mxCell>
        <mxCell id="N1MgPbPK6xEOm-_JlRt1-92" value="-&amp;nbsp;" style="text;strokeColor=none;fillColor=none;align=left;verticalAlign=top;spacingLeft=4;spacingRight=4;overflow=hidden;rotatable=0;points=[[0,0.5],[1,0.5]];portConstraint=eastwest;whiteSpace=wrap;html=1;autosize=1;" parent="N1MgPbPK6xEOm-_JlRt1-89" vertex="1">
          <mxGeometry y="116" width="160" height="30" as="geometry" />
        </mxCell>
        <mxCell id="N1MgPbPK6xEOm-_JlRt1-93" value="Main Camera" style="shape=providedRequiredInterface;html=1;verticalLabelPosition=bottom;sketch=0;verticalAlign=top;" parent="WIyWlLk6GJQsqaUBKTNV-1" vertex="1">
          <mxGeometry x="-1320" y="950" width="40" height="40" as="geometry" />
        </mxCell>
        <mxCell id="N1MgPbPK6xEOm-_JlRt1-94" value="ViralTownEventTitles" style="swimlane;fontStyle=1;align=center;verticalAlign=top;childLayout=stackLayout;horizontal=1;startSize=38;horizontalStack=0;resizeParent=1;resizeParentMax=0;resizeLast=0;collapsible=1;marginBottom=0;whiteSpace=wrap;html=1;autosize=1;" parent="WIyWlLk6GJQsqaUBKTNV-1" vertex="1">
          <mxGeometry x="190" y="890" width="530" height="136" as="geometry">
            <mxRectangle x="456" y="270" width="100" height="30" as="alternateBounds" />
          </mxGeometry>
        </mxCell>
        <mxCell id="N1MgPbPK6xEOm-_JlRt1-95" value="&lt;div&gt;+ DayTime : UnityEvent&lt;/div&gt;+ NightTime : UnityEvent&lt;div&gt;+ Every5Min : UnityEvent&lt;/div&gt;" style="text;strokeColor=none;fillColor=none;align=left;verticalAlign=top;spacingLeft=4;spacingRight=4;overflow=hidden;rotatable=0;points=[[0,0.5],[1,0.5]];portConstraint=eastwest;whiteSpace=wrap;html=1;autosize=1;" parent="N1MgPbPK6xEOm-_JlRt1-94" vertex="1">
          <mxGeometry y="38" width="530" height="60" as="geometry" />
        </mxCell>
        <mxCell id="N1MgPbPK6xEOm-_JlRt1-96" value="" style="line;strokeWidth=1;fillColor=none;align=left;verticalAlign=middle;spacingTop=-1;spacingLeft=3;spacingRight=3;rotatable=0;labelPosition=right;points=[];portConstraint=eastwest;strokeColor=inherit;" parent="N1MgPbPK6xEOm-_JlRt1-94" vertex="1">
          <mxGeometry y="98" width="530" height="8" as="geometry" />
        </mxCell>
        <mxCell id="N1MgPbPK6xEOm-_JlRt1-97" value="-&amp;nbsp;" style="text;strokeColor=none;fillColor=none;align=left;verticalAlign=top;spacingLeft=4;spacingRight=4;overflow=hidden;rotatable=0;points=[[0,0.5],[1,0.5]];portConstraint=eastwest;whiteSpace=wrap;html=1;autosize=1;" parent="N1MgPbPK6xEOm-_JlRt1-94" vertex="1">
          <mxGeometry y="106" width="530" height="30" as="geometry" />
        </mxCell>
        <mxCell id="N1MgPbPK6xEOm-_JlRt1-98" value="House" style="swimlane;fontStyle=1;align=center;verticalAlign=top;childLayout=stackLayout;horizontal=1;startSize=38;horizontalStack=0;resizeParent=1;resizeParentMax=0;resizeLast=0;collapsible=1;marginBottom=0;whiteSpace=wrap;html=1;autosize=1;" parent="WIyWlLk6GJQsqaUBKTNV-1" vertex="1">
          <mxGeometry x="-1290" y="1536" width="200" height="136" as="geometry">
            <mxRectangle x="456" y="270" width="100" height="30" as="alternateBounds" />
          </mxGeometry>
        </mxCell>
        <mxCell id="N1MgPbPK6xEOm-_JlRt1-99" value="+ maxCapacity : override int&lt;div&gt;+ currentOccupying : override int&lt;/div&gt;&lt;div&gt;+ crowdDensity : override float&lt;/div&gt;" style="text;strokeColor=none;fillColor=none;align=left;verticalAlign=top;spacingLeft=4;spacingRight=4;overflow=hidden;rotatable=0;points=[[0,0.5],[1,0.5]];portConstraint=eastwest;whiteSpace=wrap;html=1;autosize=1;" parent="N1MgPbPK6xEOm-_JlRt1-98" vertex="1">
          <mxGeometry y="38" width="200" height="60" as="geometry" />
        </mxCell>
        <mxCell id="N1MgPbPK6xEOm-_JlRt1-100" value="" style="line;strokeWidth=1;fillColor=none;align=left;verticalAlign=middle;spacingTop=-1;spacingLeft=3;spacingRight=3;rotatable=0;labelPosition=right;points=[];portConstraint=eastwest;strokeColor=inherit;" parent="N1MgPbPK6xEOm-_JlRt1-98" vertex="1">
          <mxGeometry y="98" width="200" height="8" as="geometry" />
        </mxCell>
        <mxCell id="N1MgPbPK6xEOm-_JlRt1-101" value="-&amp;nbsp;" style="text;strokeColor=none;fillColor=none;align=left;verticalAlign=top;spacingLeft=4;spacingRight=4;overflow=hidden;rotatable=0;points=[[0,0.5],[1,0.5]];portConstraint=eastwest;whiteSpace=wrap;html=1;autosize=1;" parent="N1MgPbPK6xEOm-_JlRt1-98" vertex="1">
          <mxGeometry y="106" width="200" height="30" as="geometry" />
        </mxCell>
        <mxCell id="N1MgPbPK6xEOm-_JlRt1-102" value="Duplex" style="swimlane;fontStyle=1;align=center;verticalAlign=top;childLayout=stackLayout;horizontal=1;startSize=38;horizontalStack=0;resizeParent=1;resizeParentMax=0;resizeLast=0;collapsible=1;marginBottom=0;whiteSpace=wrap;html=1;autosize=1;" parent="WIyWlLk6GJQsqaUBKTNV-1" vertex="1">
          <mxGeometry x="-1070" y="1536" width="200" height="106" as="geometry">
            <mxRectangle x="456" y="270" width="100" height="30" as="alternateBounds" />
          </mxGeometry>
        </mxCell>
        <mxCell id="N1MgPbPK6xEOm-_JlRt1-103" value="+" style="text;strokeColor=none;fillColor=none;align=left;verticalAlign=top;spacingLeft=4;spacingRight=4;overflow=hidden;rotatable=0;points=[[0,0.5],[1,0.5]];portConstraint=eastwest;whiteSpace=wrap;html=1;autosize=1;" parent="N1MgPbPK6xEOm-_JlRt1-102" vertex="1">
          <mxGeometry y="38" width="200" height="30" as="geometry" />
        </mxCell>
        <mxCell id="N1MgPbPK6xEOm-_JlRt1-104" value="" style="line;strokeWidth=1;fillColor=none;align=left;verticalAlign=middle;spacingTop=-1;spacingLeft=3;spacingRight=3;rotatable=0;labelPosition=right;points=[];portConstraint=eastwest;strokeColor=inherit;" parent="N1MgPbPK6xEOm-_JlRt1-102" vertex="1">
          <mxGeometry y="68" width="200" height="8" as="geometry" />
        </mxCell>
        <mxCell id="N1MgPbPK6xEOm-_JlRt1-105" value="-&amp;nbsp;" style="text;strokeColor=none;fillColor=none;align=left;verticalAlign=top;spacingLeft=4;spacingRight=4;overflow=hidden;rotatable=0;points=[[0,0.5],[1,0.5]];portConstraint=eastwest;whiteSpace=wrap;html=1;autosize=1;" parent="N1MgPbPK6xEOm-_JlRt1-102" vertex="1">
          <mxGeometry y="76" width="200" height="30" as="geometry" />
        </mxCell>
        <mxCell id="N1MgPbPK6xEOm-_JlRt1-106" value="Mansion" style="swimlane;fontStyle=1;align=center;verticalAlign=top;childLayout=stackLayout;horizontal=1;startSize=38;horizontalStack=0;resizeParent=1;resizeParentMax=0;resizeLast=0;collapsible=1;marginBottom=0;whiteSpace=wrap;html=1;autosize=1;" parent="WIyWlLk6GJQsqaUBKTNV-1" vertex="1">
          <mxGeometry x="-850" y="1536" width="200" height="106" as="geometry">
            <mxRectangle x="456" y="270" width="100" height="30" as="alternateBounds" />
          </mxGeometry>
        </mxCell>
        <mxCell id="N1MgPbPK6xEOm-_JlRt1-107" value="+" style="text;strokeColor=none;fillColor=none;align=left;verticalAlign=top;spacingLeft=4;spacingRight=4;overflow=hidden;rotatable=0;points=[[0,0.5],[1,0.5]];portConstraint=eastwest;whiteSpace=wrap;html=1;autosize=1;" parent="N1MgPbPK6xEOm-_JlRt1-106" vertex="1">
          <mxGeometry y="38" width="200" height="30" as="geometry" />
        </mxCell>
        <mxCell id="N1MgPbPK6xEOm-_JlRt1-108" value="" style="line;strokeWidth=1;fillColor=none;align=left;verticalAlign=middle;spacingTop=-1;spacingLeft=3;spacingRight=3;rotatable=0;labelPosition=right;points=[];portConstraint=eastwest;strokeColor=inherit;" parent="N1MgPbPK6xEOm-_JlRt1-106" vertex="1">
          <mxGeometry y="68" width="200" height="8" as="geometry" />
        </mxCell>
        <mxCell id="N1MgPbPK6xEOm-_JlRt1-109" value="-&amp;nbsp;" style="text;strokeColor=none;fillColor=none;align=left;verticalAlign=top;spacingLeft=4;spacingRight=4;overflow=hidden;rotatable=0;points=[[0,0.5],[1,0.5]];portConstraint=eastwest;whiteSpace=wrap;html=1;autosize=1;" parent="N1MgPbPK6xEOm-_JlRt1-106" vertex="1">
          <mxGeometry y="76" width="200" height="30" as="geometry" />
        </mxCell>
        <mxCell id="N1MgPbPK6xEOm-_JlRt1-110" value="&lt;b&gt;TimerScript&lt;br&gt;&lt;/b&gt;" style="swimlane;fontStyle=1;align=center;verticalAlign=top;childLayout=stackLayout;horizontal=1;startSize=38;horizontalStack=0;resizeParent=1;resizeParentMax=0;resizeLast=0;collapsible=1;marginBottom=0;whiteSpace=wrap;html=1;autosize=1;" parent="WIyWlLk6GJQsqaUBKTNV-1" vertex="1">
          <mxGeometry x="195" y="1100" width="160" height="276" as="geometry">
            <mxRectangle x="-720" y="1180" width="120" height="48" as="alternateBounds" />
          </mxGeometry>
        </mxCell>
        <mxCell id="N1MgPbPK6xEOm-_JlRt1-111" value="&lt;p style=&quot;margin: 0px 0px 0px 4px;&quot;&gt;+ startPoint : float&lt;/p&gt;&lt;p style=&quot;margin: 0px 0px 0px 4px;&quot;&gt;+ endPoint : float&lt;/p&gt;&lt;p style=&quot;margin: 0px 0px 0px 4px;&quot;&gt;+ elapsed : float&lt;/p&gt;&lt;p style=&quot;margin: 0px 0px 0px 4px;&quot;&gt;+ running : bool&lt;/p&gt;" style="text;strokeColor=none;fillColor=none;align=left;verticalAlign=top;spacingLeft=4;spacingRight=4;overflow=hidden;rotatable=0;points=[[0,0.5],[1,0.5]];portConstraint=eastwest;whiteSpace=wrap;html=1;autosize=1;" parent="N1MgPbPK6xEOm-_JlRt1-110" vertex="1">
          <mxGeometry y="38" width="160" height="70" as="geometry" />
        </mxCell>
        <mxCell id="N1MgPbPK6xEOm-_JlRt1-112" value="" style="line;strokeWidth=1;fillColor=none;align=left;verticalAlign=middle;spacingTop=-1;spacingLeft=3;spacingRight=3;rotatable=0;labelPosition=right;points=[];portConstraint=eastwest;strokeColor=inherit;" parent="N1MgPbPK6xEOm-_JlRt1-110" vertex="1">
          <mxGeometry y="108" width="160" height="8" as="geometry" />
        </mxCell>
        <mxCell id="N1MgPbPK6xEOm-_JlRt1-113" value="&lt;p style=&quot;margin: 0px 0px 0px 4px;&quot;&gt;- StartPoint&lt;/p&gt;&lt;p style=&quot;margin: 0px 0px 0px 4px;&quot;&gt;- EndPoint&lt;/p&gt;&lt;p style=&quot;margin: 0px 0px 0px 4px;&quot;&gt;- Elapsed&lt;/p&gt;&lt;p style=&quot;margin: 0px 0px 0px 4px;&quot;&gt;- Running&lt;/p&gt;&lt;p style=&quot;margin: 0px 0px 0px 4px;&quot;&gt;- DeactivateTimer()&lt;/p&gt;&lt;p style=&quot;margin: 0px 0px 0px 4px;&quot;&gt;- ActivateTimer()&lt;/p&gt;&lt;p style=&quot;margin: 0px 0px 0px 4px;&quot;&gt;- CountUp()&lt;/p&gt;&lt;p style=&quot;margin: 0px 0px 0px 4px;&quot;&gt;- RestartTimer()&lt;/p&gt;&lt;p style=&quot;margin: 0px 0px 0px 4px;&quot;&gt;- UnderTime()&lt;/p&gt;&lt;p style=&quot;margin: 0px 0px 0px 4px;&quot;&gt;- OverTime()&lt;/p&gt;" style="text;strokeColor=none;fillColor=none;align=left;verticalAlign=top;spacingLeft=4;spacingRight=4;overflow=hidden;rotatable=0;points=[[0,0.5],[1,0.5]];portConstraint=eastwest;whiteSpace=wrap;html=1;autosize=1;" parent="N1MgPbPK6xEOm-_JlRt1-110" vertex="1">
          <mxGeometry y="116" width="160" height="160" as="geometry" />
        </mxCell>
        <mxCell id="N1MgPbPK6xEOm-_JlRt1-114" value="&lt;font style=&quot;font-size: 16px;&quot;&gt;Social Gatherings(?)&lt;/font&gt;" style="text;strokeColor=none;fillColor=none;html=1;align=center;verticalAlign=middle;whiteSpace=wrap;rounded=0;fontSize=12;fontFamily=Helvetica;fontColor=default;labelBackgroundColor=default;" parent="WIyWlLk6GJQsqaUBKTNV-1" vertex="1">
          <mxGeometry x="-320" y="2308" width="60" height="30" as="geometry" />
        </mxCell>
        <mxCell id="N1MgPbPK6xEOm-_JlRt1-115" value="Stadium" style="swimlane;fontStyle=1;align=center;verticalAlign=top;childLayout=stackLayout;horizontal=1;startSize=38;horizontalStack=0;resizeParent=1;resizeParentMax=0;resizeLast=0;collapsible=1;marginBottom=0;whiteSpace=wrap;html=1;autosize=1;" parent="WIyWlLk6GJQsqaUBKTNV-1" vertex="1">
          <mxGeometry x="-155" y="2280" width="160" height="106" as="geometry">
            <mxRectangle x="456" y="270" width="100" height="30" as="alternateBounds" />
          </mxGeometry>
        </mxCell>
        <mxCell id="N1MgPbPK6xEOm-_JlRt1-116" value="+&amp;nbsp;" style="text;strokeColor=none;fillColor=none;align=left;verticalAlign=top;spacingLeft=4;spacingRight=4;overflow=hidden;rotatable=0;points=[[0,0.5],[1,0.5]];portConstraint=eastwest;whiteSpace=wrap;html=1;autosize=1;" parent="N1MgPbPK6xEOm-_JlRt1-115" vertex="1">
          <mxGeometry y="38" width="160" height="30" as="geometry" />
        </mxCell>
        <mxCell id="N1MgPbPK6xEOm-_JlRt1-117" value="" style="line;strokeWidth=1;fillColor=none;align=left;verticalAlign=middle;spacingTop=-1;spacingLeft=3;spacingRight=3;rotatable=0;labelPosition=right;points=[];portConstraint=eastwest;strokeColor=inherit;" parent="N1MgPbPK6xEOm-_JlRt1-115" vertex="1">
          <mxGeometry y="68" width="160" height="8" as="geometry" />
        </mxCell>
        <mxCell id="N1MgPbPK6xEOm-_JlRt1-118" value="-&amp;nbsp;" style="text;strokeColor=none;fillColor=none;align=left;verticalAlign=top;spacingLeft=4;spacingRight=4;overflow=hidden;rotatable=0;points=[[0,0.5],[1,0.5]];portConstraint=eastwest;whiteSpace=wrap;html=1;autosize=1;" parent="N1MgPbPK6xEOm-_JlRt1-115" vertex="1">
          <mxGeometry y="76" width="160" height="30" as="geometry" />
        </mxCell>
      </root>
    </mxGraphModel>
  </diagram>
  <diagram name="Copy of Ayana&#39;s Idea" id="Qa0M-FshbO_sKT3Pligh">
    <mxGraphModel dx="3741" dy="1107" grid="1" gridSize="10" guides="1" tooltips="1" connect="1" arrows="1" fold="1" page="1" pageScale="1" pageWidth="827" pageHeight="1169" math="0" shadow="0">
      <root>
        <mxCell id="Nb2ypXuPiO57JabfBI1R-0" />
        <mxCell id="Nb2ypXuPiO57JabfBI1R-1" parent="Nb2ypXuPiO57JabfBI1R-0" />
        <mxCell id="FNLvLqRnbHHo1b-LdxvE-0" value="Town" style="swimlane;fontStyle=1;align=center;verticalAlign=top;childLayout=stackLayout;horizontal=1;startSize=38;horizontalStack=0;resizeParent=1;resizeParentMax=0;resizeLast=0;collapsible=1;marginBottom=0;whiteSpace=wrap;html=1;autosize=1;" vertex="1" parent="Nb2ypXuPiO57JabfBI1R-1">
          <mxGeometry x="-690" y="876" width="220" height="236" as="geometry">
            <mxRectangle x="170" y="560" width="100" height="30" as="alternateBounds" />
          </mxGeometry>
        </mxCell>
        <mxCell id="FNLvLqRnbHHo1b-LdxvE-1" value="&lt;div&gt;- population : int&lt;/div&gt;- healthy : int&lt;div&gt;- infected : int&lt;/div&gt;&lt;div&gt;- gdp : int&lt;br&gt;&lt;/div&gt;&lt;div&gt;- buildings : struct&lt;/div&gt;&lt;div&gt;- buildingSpawner : BuildingSpawner&lt;/div&gt;" style="text;strokeColor=none;fillColor=none;align=left;verticalAlign=top;spacingLeft=4;spacingRight=4;overflow=hidden;rotatable=0;points=[[0,0.5],[1,0.5]];portConstraint=eastwest;whiteSpace=wrap;html=1;autosize=1;" vertex="1" parent="FNLvLqRnbHHo1b-LdxvE-0">
          <mxGeometry y="38" width="220" height="100" as="geometry" />
        </mxCell>
        <mxCell id="FNLvLqRnbHHo1b-LdxvE-2" value="" style="line;strokeWidth=1;fillColor=none;align=left;verticalAlign=middle;spacingTop=-1;spacingLeft=3;spacingRight=3;rotatable=0;labelPosition=right;points=[];portConstraint=eastwest;strokeColor=inherit;" vertex="1" parent="FNLvLqRnbHHo1b-LdxvE-0">
          <mxGeometry y="138" width="220" height="8" as="geometry" />
        </mxCell>
        <mxCell id="FNLvLqRnbHHo1b-LdxvE-3" value="&lt;div&gt;- SetDayState()&lt;/div&gt;- SetNightState()&lt;div&gt;&lt;div&gt;&lt;span style=&quot;background-color: initial;&quot;&gt;- MovePopToResidence()&lt;/span&gt;&lt;/div&gt;&lt;/div&gt;&lt;div&gt;&lt;span style=&quot;background-color: initial;&quot;&gt;- MovePopToCommericial()&lt;/span&gt;&lt;/div&gt;&lt;div&gt;&lt;span style=&quot;background-color: initial;&quot;&gt;- CalculatePop()&lt;/span&gt;&lt;/div&gt;" style="text;strokeColor=none;fillColor=none;align=left;verticalAlign=top;spacingLeft=4;spacingRight=4;overflow=hidden;rotatable=0;points=[[0,0.5],[1,0.5]];portConstraint=eastwest;whiteSpace=wrap;html=1;autosize=1;" vertex="1" parent="FNLvLqRnbHHo1b-LdxvE-0">
          <mxGeometry y="146" width="220" height="90" as="geometry" />
        </mxCell>
        <mxCell id="FNLvLqRnbHHo1b-LdxvE-4" style="edgeStyle=elbowEdgeStyle;rounded=0;orthogonalLoop=1;jettySize=auto;html=1;fontSize=12;startSize=8;endSize=8;elbow=vertical;" edge="1" parent="Nb2ypXuPiO57JabfBI1R-1" source="FNLvLqRnbHHo1b-LdxvE-7" target="FNLvLqRnbHHo1b-LdxvE-103">
          <mxGeometry relative="1" as="geometry">
            <Array as="points">
              <mxPoint x="-220" y="1720" />
            </Array>
          </mxGeometry>
        </mxCell>
        <mxCell id="FNLvLqRnbHHo1b-LdxvE-5" style="edgeStyle=elbowEdgeStyle;rounded=0;orthogonalLoop=1;jettySize=auto;html=1;fontSize=12;startSize=8;endSize=8;elbow=vertical;" edge="1" parent="Nb2ypXuPiO57JabfBI1R-1" source="FNLvLqRnbHHo1b-LdxvE-7" target="FNLvLqRnbHHo1b-LdxvE-107">
          <mxGeometry relative="1" as="geometry">
            <Array as="points">
              <mxPoint x="-30" y="1910" />
            </Array>
          </mxGeometry>
        </mxCell>
        <mxCell id="FNLvLqRnbHHo1b-LdxvE-6" style="edgeStyle=elbowEdgeStyle;rounded=0;orthogonalLoop=1;jettySize=auto;html=1;strokeColor=default;align=center;verticalAlign=middle;fontFamily=Helvetica;fontSize=12;fontColor=default;labelBackgroundColor=default;startSize=8;endArrow=classic;endSize=8;elbow=vertical;" edge="1" parent="Nb2ypXuPiO57JabfBI1R-1" source="FNLvLqRnbHHo1b-LdxvE-119" target="FNLvLqRnbHHo1b-LdxvE-112">
          <mxGeometry relative="1" as="geometry" />
        </mxCell>
        <mxCell id="FNLvLqRnbHHo1b-LdxvE-7" value="BuildingTemplate" style="swimlane;fontStyle=1;align=center;verticalAlign=top;childLayout=stackLayout;horizontal=1;startSize=38;horizontalStack=0;resizeParent=1;resizeParentMax=0;resizeLast=0;collapsible=1;marginBottom=0;whiteSpace=wrap;html=1;autosize=1;" vertex="1" parent="Nb2ypXuPiO57JabfBI1R-1">
          <mxGeometry x="-730" y="2320" width="300" height="156" as="geometry">
            <mxRectangle x="456" y="270" width="100" height="30" as="alternateBounds" />
          </mxGeometry>
        </mxCell>
        <mxCell id="FNLvLqRnbHHo1b-LdxvE-8" value="+ capacity :&amp;nbsp; int&lt;div&gt;+ occupancy : int&lt;/div&gt;&lt;div&gt;+ healthy : int&lt;/div&gt;&lt;div&gt;+ sick : int&amp;nbsp;&lt;/div&gt;" style="text;strokeColor=none;fillColor=none;align=left;verticalAlign=top;spacingLeft=4;spacingRight=4;overflow=hidden;rotatable=0;points=[[0,0.5],[1,0.5]];portConstraint=eastwest;whiteSpace=wrap;html=1;autosize=1;" vertex="1" parent="FNLvLqRnbHHo1b-LdxvE-7">
          <mxGeometry y="38" width="300" height="70" as="geometry" />
        </mxCell>
        <mxCell id="FNLvLqRnbHHo1b-LdxvE-9" value="" style="line;strokeWidth=1;fillColor=none;align=left;verticalAlign=middle;spacingTop=-1;spacingLeft=3;spacingRight=3;rotatable=0;labelPosition=right;points=[];portConstraint=eastwest;strokeColor=inherit;" vertex="1" parent="FNLvLqRnbHHo1b-LdxvE-7">
          <mxGeometry y="108" width="300" height="8" as="geometry" />
        </mxCell>
        <mxCell id="FNLvLqRnbHHo1b-LdxvE-10" value="- PropagateVirus()&lt;div&gt;- PropagateDeath()&lt;/div&gt;" style="text;strokeColor=none;fillColor=none;align=left;verticalAlign=top;spacingLeft=4;spacingRight=4;overflow=hidden;rotatable=0;points=[[0,0.5],[1,0.5]];portConstraint=eastwest;whiteSpace=wrap;html=1;autosize=1;" vertex="1" parent="FNLvLqRnbHHo1b-LdxvE-7">
          <mxGeometry y="116" width="300" height="40" as="geometry" />
        </mxCell>
        <mxCell id="FNLvLqRnbHHo1b-LdxvE-11" style="edgeStyle=elbowEdgeStyle;rounded=0;orthogonalLoop=1;jettySize=auto;html=1;strokeColor=default;align=center;verticalAlign=middle;fontFamily=Helvetica;fontSize=12;fontColor=default;labelBackgroundColor=default;startSize=8;endArrow=classic;endSize=8;elbow=vertical;" edge="1" parent="Nb2ypXuPiO57JabfBI1R-1" source="FNLvLqRnbHHo1b-LdxvE-7" target="FNLvLqRnbHHo1b-LdxvE-85">
          <mxGeometry relative="1" as="geometry">
            <mxPoint x="-796" y="1512" as="sourcePoint" />
            <Array as="points">
              <mxPoint x="-740" y="1510" />
            </Array>
          </mxGeometry>
        </mxCell>
        <mxCell id="FNLvLqRnbHHo1b-LdxvE-12" style="edgeStyle=elbowEdgeStyle;rounded=0;orthogonalLoop=1;jettySize=auto;elbow=vertical;html=1;strokeColor=default;align=center;verticalAlign=middle;fontFamily=Helvetica;fontSize=12;fontColor=default;labelBackgroundColor=default;startSize=8;endArrow=classic;endSize=8;" edge="1" parent="Nb2ypXuPiO57JabfBI1R-1" source="FNLvLqRnbHHo1b-LdxvE-7" target="FNLvLqRnbHHo1b-LdxvE-81">
          <mxGeometry relative="1" as="geometry">
            <mxPoint x="-796" y="1512" as="sourcePoint" />
            <Array as="points">
              <mxPoint x="-770" y="1510" />
            </Array>
          </mxGeometry>
        </mxCell>
        <mxCell id="FNLvLqRnbHHo1b-LdxvE-13" style="edgeStyle=elbowEdgeStyle;rounded=0;orthogonalLoop=1;jettySize=auto;elbow=vertical;html=1;strokeColor=default;align=center;verticalAlign=middle;fontFamily=Helvetica;fontSize=12;fontColor=default;labelBackgroundColor=default;startSize=8;endArrow=classic;endSize=8;" edge="1" parent="Nb2ypXuPiO57JabfBI1R-1" source="FNLvLqRnbHHo1b-LdxvE-7">
          <mxGeometry relative="1" as="geometry">
            <mxPoint x="-796" y="1512" as="sourcePoint" />
            <mxPoint x="-1179.9999999999995" y="1580" as="targetPoint" />
            <Array as="points">
              <mxPoint x="-900" y="1510" />
            </Array>
          </mxGeometry>
        </mxCell>
        <mxCell id="FNLvLqRnbHHo1b-LdxvE-14" style="edgeStyle=elbowEdgeStyle;rounded=0;orthogonalLoop=1;jettySize=auto;elbow=vertical;html=1;strokeColor=default;align=center;verticalAlign=middle;fontFamily=Helvetica;fontSize=12;fontColor=default;labelBackgroundColor=default;startSize=8;endArrow=classic;endSize=8;" edge="1" parent="Nb2ypXuPiO57JabfBI1R-1" source="FNLvLqRnbHHo1b-LdxvE-7" target="FNLvLqRnbHHo1b-LdxvE-25">
          <mxGeometry relative="1" as="geometry">
            <mxPoint x="-414" y="1512" as="sourcePoint" />
            <Array as="points">
              <mxPoint x="-410" y="1510" />
            </Array>
          </mxGeometry>
        </mxCell>
        <mxCell id="FNLvLqRnbHHo1b-LdxvE-15" style="edgeStyle=elbowEdgeStyle;rounded=0;orthogonalLoop=1;jettySize=auto;elbow=vertical;html=1;strokeColor=default;align=center;verticalAlign=middle;fontFamily=Helvetica;fontSize=12;fontColor=default;labelBackgroundColor=default;startSize=8;endArrow=classic;endSize=8;" edge="1" parent="Nb2ypXuPiO57JabfBI1R-1" source="FNLvLqRnbHHo1b-LdxvE-7" target="FNLvLqRnbHHo1b-LdxvE-21">
          <mxGeometry relative="1" as="geometry">
            <Array as="points">
              <mxPoint x="-330" y="1720" />
            </Array>
            <mxPoint x="-414" y="1512" as="sourcePoint" />
          </mxGeometry>
        </mxCell>
        <mxCell id="FNLvLqRnbHHo1b-LdxvE-16" style="edgeStyle=elbowEdgeStyle;rounded=0;orthogonalLoop=1;jettySize=auto;elbow=vertical;html=1;strokeColor=default;align=center;verticalAlign=middle;fontFamily=Helvetica;fontSize=12;fontColor=default;labelBackgroundColor=default;startSize=8;endArrow=classic;endSize=8;entryX=0.5;entryY=0;entryDx=0;entryDy=0;" edge="1" parent="Nb2ypXuPiO57JabfBI1R-1" source="FNLvLqRnbHHo1b-LdxvE-7" target="FNLvLqRnbHHo1b-LdxvE-32">
          <mxGeometry relative="1" as="geometry">
            <Array as="points">
              <mxPoint x="-320" y="1910" />
            </Array>
            <mxPoint x="-414" y="1512" as="sourcePoint" />
            <mxPoint x="-390" y="1970" as="targetPoint" />
          </mxGeometry>
        </mxCell>
        <mxCell id="FNLvLqRnbHHo1b-LdxvE-17" style="edgeStyle=elbowEdgeStyle;rounded=0;orthogonalLoop=1;jettySize=auto;elbow=vertical;html=1;strokeColor=default;align=center;verticalAlign=middle;fontFamily=Helvetica;fontSize=12;fontColor=default;labelBackgroundColor=default;startSize=8;endArrow=classic;endSize=8;" edge="1" parent="Nb2ypXuPiO57JabfBI1R-1" source="FNLvLqRnbHHo1b-LdxvE-7" target="FNLvLqRnbHHo1b-LdxvE-45">
          <mxGeometry relative="1" as="geometry">
            <Array as="points">
              <mxPoint x="-220" y="1910" />
            </Array>
            <mxPoint x="-414" y="1512" as="sourcePoint" />
          </mxGeometry>
        </mxCell>
        <mxCell id="FNLvLqRnbHHo1b-LdxvE-18" style="edgeStyle=elbowEdgeStyle;rounded=0;orthogonalLoop=1;jettySize=auto;elbow=vertical;html=1;strokeColor=default;align=center;verticalAlign=middle;fontFamily=Helvetica;fontSize=12;fontColor=default;labelBackgroundColor=default;startSize=8;endArrow=classic;endSize=8;" edge="1" parent="Nb2ypXuPiO57JabfBI1R-1" source="FNLvLqRnbHHo1b-LdxvE-7" target="FNLvLqRnbHHo1b-LdxvE-49">
          <mxGeometry relative="1" as="geometry">
            <Array as="points">
              <mxPoint x="-130" y="1910" />
            </Array>
            <mxPoint x="-414" y="1512" as="sourcePoint" />
          </mxGeometry>
        </mxCell>
        <mxCell id="FNLvLqRnbHHo1b-LdxvE-19" style="edgeStyle=elbowEdgeStyle;rounded=0;orthogonalLoop=1;jettySize=auto;elbow=vertical;html=1;strokeColor=default;align=center;verticalAlign=middle;fontFamily=Helvetica;fontSize=12;fontColor=default;labelBackgroundColor=default;startSize=8;endArrow=classic;endSize=8;" edge="1" parent="Nb2ypXuPiO57JabfBI1R-1" source="FNLvLqRnbHHo1b-LdxvE-7" target="FNLvLqRnbHHo1b-LdxvE-37">
          <mxGeometry relative="1" as="geometry">
            <Array as="points">
              <mxPoint x="-240" y="2086" />
            </Array>
            <mxPoint x="-414" y="1512" as="sourcePoint" />
          </mxGeometry>
        </mxCell>
        <mxCell id="FNLvLqRnbHHo1b-LdxvE-20" style="edgeStyle=elbowEdgeStyle;rounded=0;orthogonalLoop=1;jettySize=auto;elbow=vertical;html=1;strokeColor=default;align=center;verticalAlign=middle;fontFamily=Helvetica;fontSize=12;fontColor=default;labelBackgroundColor=default;startSize=8;endArrow=classic;endSize=8;entryX=0.5;entryY=0;entryDx=0;entryDy=0;" edge="1" parent="Nb2ypXuPiO57JabfBI1R-1" source="FNLvLqRnbHHo1b-LdxvE-7" target="FNLvLqRnbHHo1b-LdxvE-41">
          <mxGeometry relative="1" as="geometry">
            <Array as="points">
              <mxPoint x="-120" y="2086" />
            </Array>
            <mxPoint x="-414" y="1512" as="sourcePoint" />
            <mxPoint x="-40" y="2090" as="targetPoint" />
          </mxGeometry>
        </mxCell>
        <mxCell id="FNLvLqRnbHHo1b-LdxvE-21" value="OfficeBlue&lt;div&gt;&lt;span style=&quot;color: rgba(0, 0, 0, 0); font-family: monospace; font-size: 0px; font-weight: 400; text-align: start; text-wrap: nowrap;&quot;&gt;%3CmxGraphModel%3E%3Croot%3E%3CmxCell%20id%3D%220%22%2F%3E%3CmxCell%20id%3D%221%22%20parent%3D%220%22%2F%3E%3CmxCell%20id%3D%222%22%20value%3D%22Classname%22%20style%3D%22swimlane%3BfontStyle%3D1%3Balign%3Dcenter%3BverticalAlign%3Dtop%3BchildLayout%3DstackLayout%3Bhorizontal%3D1%3BstartSize%3D26%3BhorizontalStack%3D0%3BresizeParent%3D1%3BresizeParentMax%3D0%3BresizeLast%3D0%3Bcollapsible%3D1%3BmarginBottom%3D0%3BwhiteSpace%3Dwrap%3Bhtml%3D1%3Bautosize%3D1%3B%22%20vertex%3D%221%22%20parent%3D%221%22%3E%3CmxGeometry%20x%3D%22270%22%20y%3D%22790%22%20width%3D%22160%22%20height%3D%2294%22%20as%3D%22geometry%22%3E%3CmxRectangle%20x%3D%22456%22%20y%3D%22270%22%20width%3D%22100%22%20height%3D%2230%22%20as%3D%22alternateBounds%22%2F%3E%3C%2FmxGeometry%3E%3C%2FmxCell%3E%3CmxCell%20id%3D%223%22%20value%3D%22%2B%26amp%3Bnbsp%3B%22%20style%3D%22text%3BstrokeColor%3Dnone%3BfillColor%3Dnone%3Balign%3Dleft%3BverticalAlign%3Dtop%3BspacingLeft%3D4%3BspacingRight%3D4%3Boverflow%3Dhidden%3Brotatable%3D0%3Bpoints%3D%5B%5B0%2C0.5%5D%2C%5B1%2C0.5%5D%5D%3BportConstraint%3Deastwest%3BwhiteSpace%3Dwrap%3Bhtml%3D1%3Bautosize%3D1%3B%22%20vertex%3D%221%22%20parent%3D%222%22%3E%3CmxGeometry%20y%3D%2226%22%20width%3D%22160%22%20height%3D%2230%22%20as%3D%22geometry%22%2F%3E%3C%2FmxCell%3E%3CmxCell%20id%3D%224%22%20value%3D%22%22%20style%3D%22line%3BstrokeWidth%3D1%3BfillColor%3Dnone%3Balign%3Dleft%3BverticalAlign%3Dmiddle%3BspacingTop%3D-1%3BspacingLeft%3D3%3BspacingRight%3D3%3Brotatable%3D0%3BlabelPosition%3Dright%3Bpoints%3D%5B%5D%3BportConstraint%3Deastwest%3BstrokeColor%3Dinherit%3B%22%20vertex%3D%221%22%20parent%3D%222%22%3E%3CmxGeometry%20y%3D%2256%22%20width%3D%22160%22%20height%3D%228%22%20as%3D%22geometry%22%2F%3E%3C%2FmxCell%3E%3CmxCell%20id%3D%225%22%20value%3D%22-%26amp%3Bnbsp%3B%22%20style%3D%22text%3BstrokeColor%3Dnone%3BfillColor%3Dnone%3Balign%3Dleft%3BverticalAlign%3Dtop%3BspacingLeft%3D4%3BspacingRight%3D4%3Boverflow%3Dhidden%3Brotatable%3D0%3Bpoints%3D%5B%5B0%2C0.5%5D%2C%5B1%2C0.5%5D%5D%3BportConstraint%3Deastwest%3BwhiteSpace%3Dwrap%3Bhtml%3D1%3Bautosize%3D1%3B%22%20vertex%3D%221%22%20parent%3D%222%22%3E%3CmxGeometry%20y%3D%2264%22%20width%3D%22160%22%20height%3D%2230%22%20as%3D%22geometry%22%2F%3E%3C%2FmxCell%3E%3C%2Froot%3E%3C%2FmxGraphModel%Blue&lt;/span&gt;&lt;/div&gt;" style="swimlane;fontStyle=1;align=center;verticalAlign=top;childLayout=stackLayout;horizontal=1;startSize=48;horizontalStack=0;resizeParent=1;resizeParentMax=0;resizeLast=0;collapsible=1;marginBottom=0;whiteSpace=wrap;html=1;autosize=1;" vertex="1" parent="Nb2ypXuPiO57JabfBI1R-1">
          <mxGeometry x="-325" y="1767" width="160" height="116" as="geometry">
            <mxRectangle x="456" y="270" width="100" height="30" as="alternateBounds" />
          </mxGeometry>
        </mxCell>
        <mxCell id="FNLvLqRnbHHo1b-LdxvE-22" value="+&amp;nbsp;" style="text;strokeColor=none;fillColor=none;align=left;verticalAlign=top;spacingLeft=4;spacingRight=4;overflow=hidden;rotatable=0;points=[[0,0.5],[1,0.5]];portConstraint=eastwest;whiteSpace=wrap;html=1;autosize=1;" vertex="1" parent="FNLvLqRnbHHo1b-LdxvE-21">
          <mxGeometry y="48" width="160" height="30" as="geometry" />
        </mxCell>
        <mxCell id="FNLvLqRnbHHo1b-LdxvE-23" value="" style="line;strokeWidth=1;fillColor=none;align=left;verticalAlign=middle;spacingTop=-1;spacingLeft=3;spacingRight=3;rotatable=0;labelPosition=right;points=[];portConstraint=eastwest;strokeColor=inherit;" vertex="1" parent="FNLvLqRnbHHo1b-LdxvE-21">
          <mxGeometry y="78" width="160" height="8" as="geometry" />
        </mxCell>
        <mxCell id="FNLvLqRnbHHo1b-LdxvE-24" value="-&amp;nbsp;" style="text;strokeColor=none;fillColor=none;align=left;verticalAlign=top;spacingLeft=4;spacingRight=4;overflow=hidden;rotatable=0;points=[[0,0.5],[1,0.5]];portConstraint=eastwest;whiteSpace=wrap;html=1;autosize=1;" vertex="1" parent="FNLvLqRnbHHo1b-LdxvE-21">
          <mxGeometry y="86" width="160" height="30" as="geometry" />
        </mxCell>
        <mxCell id="FNLvLqRnbHHo1b-LdxvE-25" value="Hospital" style="swimlane;fontStyle=1;align=center;verticalAlign=top;childLayout=stackLayout;horizontal=1;startSize=38;horizontalStack=0;resizeParent=1;resizeParentMax=0;resizeLast=0;collapsible=1;marginBottom=0;whiteSpace=wrap;html=1;autosize=1;" vertex="1" parent="Nb2ypXuPiO57JabfBI1R-1">
          <mxGeometry x="-324" y="1580" width="160" height="106" as="geometry">
            <mxRectangle x="456" y="270" width="100" height="30" as="alternateBounds" />
          </mxGeometry>
        </mxCell>
        <mxCell id="FNLvLqRnbHHo1b-LdxvE-26" value="+&amp;nbsp;" style="text;strokeColor=none;fillColor=none;align=left;verticalAlign=top;spacingLeft=4;spacingRight=4;overflow=hidden;rotatable=0;points=[[0,0.5],[1,0.5]];portConstraint=eastwest;whiteSpace=wrap;html=1;autosize=1;" vertex="1" parent="FNLvLqRnbHHo1b-LdxvE-25">
          <mxGeometry y="38" width="160" height="30" as="geometry" />
        </mxCell>
        <mxCell id="FNLvLqRnbHHo1b-LdxvE-27" value="" style="line;strokeWidth=1;fillColor=none;align=left;verticalAlign=middle;spacingTop=-1;spacingLeft=3;spacingRight=3;rotatable=0;labelPosition=right;points=[];portConstraint=eastwest;strokeColor=inherit;" vertex="1" parent="FNLvLqRnbHHo1b-LdxvE-25">
          <mxGeometry y="68" width="160" height="8" as="geometry" />
        </mxCell>
        <mxCell id="FNLvLqRnbHHo1b-LdxvE-28" value="-&amp;nbsp;" style="text;strokeColor=none;fillColor=none;align=left;verticalAlign=top;spacingLeft=4;spacingRight=4;overflow=hidden;rotatable=0;points=[[0,0.5],[1,0.5]];portConstraint=eastwest;whiteSpace=wrap;html=1;autosize=1;" vertex="1" parent="FNLvLqRnbHHo1b-LdxvE-25">
          <mxGeometry y="76" width="160" height="30" as="geometry" />
        </mxCell>
        <mxCell id="FNLvLqRnbHHo1b-LdxvE-29" value="&lt;div&gt;Necessity&lt;/div&gt;Healthcare" style="text;strokeColor=none;fillColor=none;html=1;align=center;verticalAlign=middle;whiteSpace=wrap;rounded=0;fontSize=16;" vertex="1" parent="Nb2ypXuPiO57JabfBI1R-1">
          <mxGeometry x="-490" y="1618" width="60" height="30" as="geometry" />
        </mxCell>
        <mxCell id="FNLvLqRnbHHo1b-LdxvE-30" value="Workforce" style="text;strokeColor=none;fillColor=none;html=1;align=center;verticalAlign=middle;whiteSpace=wrap;rounded=0;fontSize=16;" vertex="1" parent="Nb2ypXuPiO57JabfBI1R-1">
          <mxGeometry x="-490" y="1797" width="60" height="30" as="geometry" />
        </mxCell>
        <mxCell id="FNLvLqRnbHHo1b-LdxvE-31" value="Shopping District" style="text;strokeColor=none;fillColor=none;html=1;align=center;verticalAlign=middle;whiteSpace=wrap;rounded=0;fontSize=16;" vertex="1" parent="Nb2ypXuPiO57JabfBI1R-1">
          <mxGeometry x="-490" y="1968" width="60" height="30" as="geometry" />
        </mxCell>
        <mxCell id="FNLvLqRnbHHo1b-LdxvE-32" value="ShoppingMall" style="swimlane;fontStyle=1;align=center;verticalAlign=top;childLayout=stackLayout;horizontal=1;startSize=38;horizontalStack=0;resizeParent=1;resizeParentMax=0;resizeLast=0;collapsible=1;marginBottom=0;whiteSpace=wrap;html=1;autosize=1;" vertex="1" parent="Nb2ypXuPiO57JabfBI1R-1">
          <mxGeometry x="-325" y="1948" width="160" height="106" as="geometry">
            <mxRectangle x="456" y="270" width="100" height="30" as="alternateBounds" />
          </mxGeometry>
        </mxCell>
        <mxCell id="FNLvLqRnbHHo1b-LdxvE-33" value="+&amp;nbsp;" style="text;strokeColor=none;fillColor=none;align=left;verticalAlign=top;spacingLeft=4;spacingRight=4;overflow=hidden;rotatable=0;points=[[0,0.5],[1,0.5]];portConstraint=eastwest;whiteSpace=wrap;html=1;autosize=1;" vertex="1" parent="FNLvLqRnbHHo1b-LdxvE-32">
          <mxGeometry y="38" width="160" height="30" as="geometry" />
        </mxCell>
        <mxCell id="FNLvLqRnbHHo1b-LdxvE-34" value="" style="line;strokeWidth=1;fillColor=none;align=left;verticalAlign=middle;spacingTop=-1;spacingLeft=3;spacingRight=3;rotatable=0;labelPosition=right;points=[];portConstraint=eastwest;strokeColor=inherit;" vertex="1" parent="FNLvLqRnbHHo1b-LdxvE-32">
          <mxGeometry y="68" width="160" height="8" as="geometry" />
        </mxCell>
        <mxCell id="FNLvLqRnbHHo1b-LdxvE-35" value="-&amp;nbsp;" style="text;strokeColor=none;fillColor=none;align=left;verticalAlign=top;spacingLeft=4;spacingRight=4;overflow=hidden;rotatable=0;points=[[0,0.5],[1,0.5]];portConstraint=eastwest;whiteSpace=wrap;html=1;autosize=1;" vertex="1" parent="FNLvLqRnbHHo1b-LdxvE-32">
          <mxGeometry y="76" width="160" height="30" as="geometry" />
        </mxCell>
        <mxCell id="FNLvLqRnbHHo1b-LdxvE-36" value="Food" style="text;strokeColor=none;fillColor=none;html=1;align=center;verticalAlign=middle;whiteSpace=wrap;rounded=0;fontSize=16;" vertex="1" parent="Nb2ypXuPiO57JabfBI1R-1">
          <mxGeometry x="-490" y="2154" width="60" height="30" as="geometry" />
        </mxCell>
        <mxCell id="FNLvLqRnbHHo1b-LdxvE-37" value="Restaurant" style="swimlane;fontStyle=1;align=center;verticalAlign=top;childLayout=stackLayout;horizontal=1;startSize=38;horizontalStack=0;resizeParent=1;resizeParentMax=0;resizeLast=0;collapsible=1;marginBottom=0;whiteSpace=wrap;html=1;autosize=1;" vertex="1" parent="Nb2ypXuPiO57JabfBI1R-1">
          <mxGeometry x="-325" y="2128" width="160" height="106" as="geometry">
            <mxRectangle x="456" y="270" width="100" height="30" as="alternateBounds" />
          </mxGeometry>
        </mxCell>
        <mxCell id="FNLvLqRnbHHo1b-LdxvE-38" value="+&amp;nbsp;" style="text;strokeColor=none;fillColor=none;align=left;verticalAlign=top;spacingLeft=4;spacingRight=4;overflow=hidden;rotatable=0;points=[[0,0.5],[1,0.5]];portConstraint=eastwest;whiteSpace=wrap;html=1;autosize=1;" vertex="1" parent="FNLvLqRnbHHo1b-LdxvE-37">
          <mxGeometry y="38" width="160" height="30" as="geometry" />
        </mxCell>
        <mxCell id="FNLvLqRnbHHo1b-LdxvE-39" value="" style="line;strokeWidth=1;fillColor=none;align=left;verticalAlign=middle;spacingTop=-1;spacingLeft=3;spacingRight=3;rotatable=0;labelPosition=right;points=[];portConstraint=eastwest;strokeColor=inherit;" vertex="1" parent="FNLvLqRnbHHo1b-LdxvE-37">
          <mxGeometry y="68" width="160" height="8" as="geometry" />
        </mxCell>
        <mxCell id="FNLvLqRnbHHo1b-LdxvE-40" value="-&amp;nbsp;" style="text;strokeColor=none;fillColor=none;align=left;verticalAlign=top;spacingLeft=4;spacingRight=4;overflow=hidden;rotatable=0;points=[[0,0.5],[1,0.5]];portConstraint=eastwest;whiteSpace=wrap;html=1;autosize=1;" vertex="1" parent="FNLvLqRnbHHo1b-LdxvE-37">
          <mxGeometry y="76" width="160" height="30" as="geometry" />
        </mxCell>
        <mxCell id="FNLvLqRnbHHo1b-LdxvE-41" value="Deli" style="swimlane;fontStyle=1;align=center;verticalAlign=top;childLayout=stackLayout;horizontal=1;startSize=38;horizontalStack=0;resizeParent=1;resizeParentMax=0;resizeLast=0;collapsible=1;marginBottom=0;whiteSpace=wrap;html=1;autosize=1;" vertex="1" parent="Nb2ypXuPiO57JabfBI1R-1">
          <mxGeometry x="-126" y="2128" width="160" height="106" as="geometry">
            <mxRectangle x="456" y="270" width="100" height="30" as="alternateBounds" />
          </mxGeometry>
        </mxCell>
        <mxCell id="FNLvLqRnbHHo1b-LdxvE-42" value="+&amp;nbsp;" style="text;strokeColor=none;fillColor=none;align=left;verticalAlign=top;spacingLeft=4;spacingRight=4;overflow=hidden;rotatable=0;points=[[0,0.5],[1,0.5]];portConstraint=eastwest;whiteSpace=wrap;html=1;autosize=1;" vertex="1" parent="FNLvLqRnbHHo1b-LdxvE-41">
          <mxGeometry y="38" width="160" height="30" as="geometry" />
        </mxCell>
        <mxCell id="FNLvLqRnbHHo1b-LdxvE-43" value="" style="line;strokeWidth=1;fillColor=none;align=left;verticalAlign=middle;spacingTop=-1;spacingLeft=3;spacingRight=3;rotatable=0;labelPosition=right;points=[];portConstraint=eastwest;strokeColor=inherit;" vertex="1" parent="FNLvLqRnbHHo1b-LdxvE-41">
          <mxGeometry y="68" width="160" height="8" as="geometry" />
        </mxCell>
        <mxCell id="FNLvLqRnbHHo1b-LdxvE-44" value="-&amp;nbsp;" style="text;strokeColor=none;fillColor=none;align=left;verticalAlign=top;spacingLeft=4;spacingRight=4;overflow=hidden;rotatable=0;points=[[0,0.5],[1,0.5]];portConstraint=eastwest;whiteSpace=wrap;html=1;autosize=1;" vertex="1" parent="FNLvLqRnbHHo1b-LdxvE-41">
          <mxGeometry y="76" width="160" height="30" as="geometry" />
        </mxCell>
        <mxCell id="FNLvLqRnbHHo1b-LdxvE-45" value="Supermarket" style="swimlane;fontStyle=1;align=center;verticalAlign=top;childLayout=stackLayout;horizontal=1;startSize=38;horizontalStack=0;resizeParent=1;resizeParentMax=0;resizeLast=0;collapsible=1;marginBottom=0;whiteSpace=wrap;html=1;autosize=1;" vertex="1" parent="Nb2ypXuPiO57JabfBI1R-1">
          <mxGeometry x="-126.5" y="1948" width="160" height="106" as="geometry">
            <mxRectangle x="456" y="270" width="100" height="30" as="alternateBounds" />
          </mxGeometry>
        </mxCell>
        <mxCell id="FNLvLqRnbHHo1b-LdxvE-46" value="+&amp;nbsp;" style="text;strokeColor=none;fillColor=none;align=left;verticalAlign=top;spacingLeft=4;spacingRight=4;overflow=hidden;rotatable=0;points=[[0,0.5],[1,0.5]];portConstraint=eastwest;whiteSpace=wrap;html=1;autosize=1;" vertex="1" parent="FNLvLqRnbHHo1b-LdxvE-45">
          <mxGeometry y="38" width="160" height="30" as="geometry" />
        </mxCell>
        <mxCell id="FNLvLqRnbHHo1b-LdxvE-47" value="" style="line;strokeWidth=1;fillColor=none;align=left;verticalAlign=middle;spacingTop=-1;spacingLeft=3;spacingRight=3;rotatable=0;labelPosition=right;points=[];portConstraint=eastwest;strokeColor=inherit;" vertex="1" parent="FNLvLqRnbHHo1b-LdxvE-45">
          <mxGeometry y="68" width="160" height="8" as="geometry" />
        </mxCell>
        <mxCell id="FNLvLqRnbHHo1b-LdxvE-48" value="-&amp;nbsp;" style="text;strokeColor=none;fillColor=none;align=left;verticalAlign=top;spacingLeft=4;spacingRight=4;overflow=hidden;rotatable=0;points=[[0,0.5],[1,0.5]];portConstraint=eastwest;whiteSpace=wrap;html=1;autosize=1;" vertex="1" parent="FNLvLqRnbHHo1b-LdxvE-45">
          <mxGeometry y="76" width="160" height="30" as="geometry" />
        </mxCell>
        <mxCell id="FNLvLqRnbHHo1b-LdxvE-49" value="Shop" style="swimlane;fontStyle=1;align=center;verticalAlign=top;childLayout=stackLayout;horizontal=1;startSize=38;horizontalStack=0;resizeParent=1;resizeParentMax=0;resizeLast=0;collapsible=1;marginBottom=0;whiteSpace=wrap;html=1;autosize=1;" vertex="1" parent="Nb2ypXuPiO57JabfBI1R-1">
          <mxGeometry x="70" y="1948" width="160" height="106" as="geometry">
            <mxRectangle x="456" y="270" width="100" height="30" as="alternateBounds" />
          </mxGeometry>
        </mxCell>
        <mxCell id="FNLvLqRnbHHo1b-LdxvE-50" value="+&amp;nbsp;" style="text;strokeColor=none;fillColor=none;align=left;verticalAlign=top;spacingLeft=4;spacingRight=4;overflow=hidden;rotatable=0;points=[[0,0.5],[1,0.5]];portConstraint=eastwest;whiteSpace=wrap;html=1;autosize=1;" vertex="1" parent="FNLvLqRnbHHo1b-LdxvE-49">
          <mxGeometry y="38" width="160" height="30" as="geometry" />
        </mxCell>
        <mxCell id="FNLvLqRnbHHo1b-LdxvE-51" value="" style="line;strokeWidth=1;fillColor=none;align=left;verticalAlign=middle;spacingTop=-1;spacingLeft=3;spacingRight=3;rotatable=0;labelPosition=right;points=[];portConstraint=eastwest;strokeColor=inherit;" vertex="1" parent="FNLvLqRnbHHo1b-LdxvE-49">
          <mxGeometry y="68" width="160" height="8" as="geometry" />
        </mxCell>
        <mxCell id="FNLvLqRnbHHo1b-LdxvE-52" value="-&amp;nbsp;" style="text;strokeColor=none;fillColor=none;align=left;verticalAlign=top;spacingLeft=4;spacingRight=4;overflow=hidden;rotatable=0;points=[[0,0.5],[1,0.5]];portConstraint=eastwest;whiteSpace=wrap;html=1;autosize=1;" vertex="1" parent="FNLvLqRnbHHo1b-LdxvE-49">
          <mxGeometry y="76" width="160" height="30" as="geometry" />
        </mxCell>
        <mxCell id="FNLvLqRnbHHo1b-LdxvE-53" value="Virus" style="swimlane;fontStyle=1;align=center;verticalAlign=top;childLayout=stackLayout;horizontal=1;startSize=38;horizontalStack=0;resizeParent=1;resizeParentMax=0;resizeLast=0;collapsible=1;marginBottom=0;whiteSpace=wrap;html=1;autosize=1;" vertex="1" parent="Nb2ypXuPiO57JabfBI1R-1">
          <mxGeometry x="-330" y="900" width="480" height="146" as="geometry">
            <mxRectangle x="456" y="270" width="100" height="30" as="alternateBounds" />
          </mxGeometry>
        </mxCell>
        <mxCell id="FNLvLqRnbHHo1b-LdxvE-54" value="&lt;div&gt;- infectionRate : double&lt;/div&gt;&lt;div&gt;- deathRate : double&lt;/div&gt;" style="text;strokeColor=none;fillColor=none;align=left;verticalAlign=top;spacingLeft=4;spacingRight=4;overflow=hidden;rotatable=0;points=[[0,0.5],[1,0.5]];portConstraint=eastwest;whiteSpace=wrap;html=1;autosize=1;" vertex="1" parent="FNLvLqRnbHHo1b-LdxvE-53">
          <mxGeometry y="38" width="480" height="40" as="geometry" />
        </mxCell>
        <mxCell id="FNLvLqRnbHHo1b-LdxvE-55" value="" style="line;strokeWidth=1;fillColor=none;align=left;verticalAlign=middle;spacingTop=-1;spacingLeft=3;spacingRight=3;rotatable=0;labelPosition=right;points=[];portConstraint=eastwest;strokeColor=inherit;" vertex="1" parent="FNLvLqRnbHHo1b-LdxvE-53">
          <mxGeometry y="78" width="480" height="8" as="geometry" />
        </mxCell>
        <mxCell id="FNLvLqRnbHHo1b-LdxvE-56" value="- Mutate()&lt;div&gt;&lt;span style=&quot;white-space: pre;&quot;&gt;&#x9;&lt;/span&gt;- IncreaseVirusStat (float increaseTimePercent, float increaseInfectRatePercent)&lt;br&gt;&lt;div&gt;&lt;span style=&quot;white-space: pre;&quot;&gt;&#x9;&lt;/span&gt;- EndGamePunishment()&lt;/div&gt;&lt;/div&gt;" style="text;strokeColor=none;fillColor=none;align=left;verticalAlign=top;spacingLeft=4;spacingRight=4;overflow=hidden;rotatable=0;points=[[0,0.5],[1,0.5]];portConstraint=eastwest;whiteSpace=wrap;html=1;autosize=1;" vertex="1" parent="FNLvLqRnbHHo1b-LdxvE-53">
          <mxGeometry y="86" width="480" height="60" as="geometry" />
        </mxCell>
        <mxCell id="FNLvLqRnbHHo1b-LdxvE-57" style="edgeStyle=none;curved=1;rounded=0;orthogonalLoop=1;jettySize=auto;html=1;fontSize=12;startSize=8;endSize=8;" edge="1" parent="Nb2ypXuPiO57JabfBI1R-1" source="FNLvLqRnbHHo1b-LdxvE-58" target="FNLvLqRnbHHo1b-LdxvE-0">
          <mxGeometry relative="1" as="geometry" />
        </mxCell>
        <mxCell id="FNLvLqRnbHHo1b-LdxvE-58" value="Mayor" style="swimlane;fontStyle=1;align=center;verticalAlign=top;childLayout=stackLayout;horizontal=1;startSize=38;horizontalStack=0;resizeParent=1;resizeParentMax=0;resizeLast=0;collapsible=1;marginBottom=0;whiteSpace=wrap;html=1;autosize=1;" vertex="1" parent="Nb2ypXuPiO57JabfBI1R-1">
          <mxGeometry x="-660" y="690" width="160" height="106" as="geometry">
            <mxRectangle x="456" y="270" width="100" height="30" as="alternateBounds" />
          </mxGeometry>
        </mxCell>
        <mxCell id="FNLvLqRnbHHo1b-LdxvE-59" value="+&amp;nbsp;" style="text;strokeColor=none;fillColor=none;align=left;verticalAlign=top;spacingLeft=4;spacingRight=4;overflow=hidden;rotatable=0;points=[[0,0.5],[1,0.5]];portConstraint=eastwest;whiteSpace=wrap;html=1;autosize=1;" vertex="1" parent="FNLvLqRnbHHo1b-LdxvE-58">
          <mxGeometry y="38" width="160" height="30" as="geometry" />
        </mxCell>
        <mxCell id="FNLvLqRnbHHo1b-LdxvE-60" value="" style="line;strokeWidth=1;fillColor=none;align=left;verticalAlign=middle;spacingTop=-1;spacingLeft=3;spacingRight=3;rotatable=0;labelPosition=right;points=[];portConstraint=eastwest;strokeColor=inherit;" vertex="1" parent="FNLvLqRnbHHo1b-LdxvE-58">
          <mxGeometry y="68" width="160" height="8" as="geometry" />
        </mxCell>
        <mxCell id="FNLvLqRnbHHo1b-LdxvE-61" value="-&amp;nbsp;" style="text;strokeColor=none;fillColor=none;align=left;verticalAlign=top;spacingLeft=4;spacingRight=4;overflow=hidden;rotatable=0;points=[[0,0.5],[1,0.5]];portConstraint=eastwest;whiteSpace=wrap;html=1;autosize=1;" vertex="1" parent="FNLvLqRnbHHo1b-LdxvE-58">
          <mxGeometry y="76" width="160" height="30" as="geometry" />
        </mxCell>
        <mxCell id="FNLvLqRnbHHo1b-LdxvE-62" style="edgeStyle=elbowEdgeStyle;rounded=0;orthogonalLoop=1;jettySize=auto;html=1;strokeColor=default;align=center;verticalAlign=middle;fontFamily=Helvetica;fontSize=12;fontColor=default;labelBackgroundColor=default;startSize=8;endArrow=classic;endSize=8;" edge="1" parent="Nb2ypXuPiO57JabfBI1R-1" source="FNLvLqRnbHHo1b-LdxvE-64" target="FNLvLqRnbHHo1b-LdxvE-72">
          <mxGeometry relative="1" as="geometry" />
        </mxCell>
        <mxCell id="FNLvLqRnbHHo1b-LdxvE-63" style="edgeStyle=elbowEdgeStyle;rounded=0;orthogonalLoop=1;jettySize=auto;elbow=vertical;html=1;strokeColor=default;align=center;verticalAlign=middle;fontFamily=Helvetica;fontSize=12;fontColor=default;labelBackgroundColor=default;startSize=8;endArrow=classic;endSize=8;" edge="1" parent="Nb2ypXuPiO57JabfBI1R-1" source="FNLvLqRnbHHo1b-LdxvE-64" target="FNLvLqRnbHHo1b-LdxvE-68">
          <mxGeometry relative="1" as="geometry" />
        </mxCell>
        <mxCell id="FNLvLqRnbHHo1b-LdxvE-64" value="Game" style="swimlane;fontStyle=1;align=center;verticalAlign=top;childLayout=stackLayout;horizontal=1;startSize=38;horizontalStack=0;resizeParent=1;resizeParentMax=0;resizeLast=0;collapsible=1;marginBottom=0;whiteSpace=wrap;html=1;autosize=1;" vertex="1" parent="Nb2ypXuPiO57JabfBI1R-1">
          <mxGeometry x="-985" y="750" width="170" height="126" as="geometry">
            <mxRectangle x="456" y="270" width="100" height="30" as="alternateBounds" />
          </mxGeometry>
        </mxCell>
        <mxCell id="FNLvLqRnbHHo1b-LdxvE-65" value="- timer : Timer&lt;div&gt;- hud : HUD&lt;/div&gt;" style="text;strokeColor=none;fillColor=none;align=left;verticalAlign=top;spacingLeft=4;spacingRight=4;overflow=hidden;rotatable=0;points=[[0,0.5],[1,0.5]];portConstraint=eastwest;whiteSpace=wrap;html=1;autosize=1;" vertex="1" parent="FNLvLqRnbHHo1b-LdxvE-64">
          <mxGeometry y="38" width="170" height="40" as="geometry" />
        </mxCell>
        <mxCell id="FNLvLqRnbHHo1b-LdxvE-66" value="" style="line;strokeWidth=1;fillColor=none;align=left;verticalAlign=middle;spacingTop=-1;spacingLeft=3;spacingRight=3;rotatable=0;labelPosition=right;points=[];portConstraint=eastwest;strokeColor=inherit;" vertex="1" parent="FNLvLqRnbHHo1b-LdxvE-64">
          <mxGeometry y="78" width="170" height="8" as="geometry" />
        </mxCell>
        <mxCell id="FNLvLqRnbHHo1b-LdxvE-67" value="&lt;div&gt;- Start()&amp;nbsp;&lt;/div&gt;&lt;div&gt;&lt;span style=&quot;background-color: initial;&quot;&gt;- Update()&lt;/span&gt;&lt;/div&gt;&lt;div&gt;&lt;/div&gt;&lt;div&gt;&lt;/div&gt;" style="text;strokeColor=none;fillColor=none;align=left;verticalAlign=top;spacingLeft=4;spacingRight=4;overflow=hidden;rotatable=0;points=[[0,0.5],[1,0.5]];portConstraint=eastwest;whiteSpace=wrap;html=1;autosize=1;" vertex="1" parent="FNLvLqRnbHHo1b-LdxvE-64">
          <mxGeometry y="86" width="170" height="40" as="geometry" />
        </mxCell>
        <mxCell id="FNLvLqRnbHHo1b-LdxvE-68" value="HUD" style="swimlane;fontStyle=1;align=center;verticalAlign=top;childLayout=stackLayout;horizontal=1;startSize=38;horizontalStack=0;resizeParent=1;resizeParentMax=0;resizeLast=0;collapsible=1;marginBottom=0;whiteSpace=wrap;html=1;autosize=1;" vertex="1" parent="Nb2ypXuPiO57JabfBI1R-1">
          <mxGeometry x="-985" y="960" width="220" height="106" as="geometry">
            <mxRectangle x="456" y="270" width="100" height="30" as="alternateBounds" />
          </mxGeometry>
        </mxCell>
        <mxCell id="FNLvLqRnbHHo1b-LdxvE-69" value="+&amp;nbsp;" style="text;strokeColor=none;fillColor=none;align=left;verticalAlign=top;spacingLeft=4;spacingRight=4;overflow=hidden;rotatable=0;points=[[0,0.5],[1,0.5]];portConstraint=eastwest;whiteSpace=wrap;html=1;autosize=1;" vertex="1" parent="FNLvLqRnbHHo1b-LdxvE-68">
          <mxGeometry y="38" width="220" height="30" as="geometry" />
        </mxCell>
        <mxCell id="FNLvLqRnbHHo1b-LdxvE-70" value="" style="line;strokeWidth=1;fillColor=none;align=left;verticalAlign=middle;spacingTop=-1;spacingLeft=3;spacingRight=3;rotatable=0;labelPosition=right;points=[];portConstraint=eastwest;strokeColor=inherit;" vertex="1" parent="FNLvLqRnbHHo1b-LdxvE-68">
          <mxGeometry y="68" width="220" height="8" as="geometry" />
        </mxCell>
        <mxCell id="FNLvLqRnbHHo1b-LdxvE-71" value="-&amp;nbsp;" style="text;strokeColor=none;fillColor=none;align=left;verticalAlign=top;spacingLeft=4;spacingRight=4;overflow=hidden;rotatable=0;points=[[0,0.5],[1,0.5]];portConstraint=eastwest;whiteSpace=wrap;html=1;autosize=1;" vertex="1" parent="FNLvLqRnbHHo1b-LdxvE-68">
          <mxGeometry y="76" width="220" height="30" as="geometry" />
        </mxCell>
        <mxCell id="FNLvLqRnbHHo1b-LdxvE-72" value="Main Camera" style="shape=providedRequiredInterface;html=1;verticalLabelPosition=bottom;sketch=0;verticalAlign=top;" vertex="1" parent="Nb2ypXuPiO57JabfBI1R-1">
          <mxGeometry x="-1155" y="1010" width="40" height="40" as="geometry" />
        </mxCell>
        <mxCell id="FNLvLqRnbHHo1b-LdxvE-73" value="ViralTownEvents" style="swimlane;fontStyle=1;align=center;verticalAlign=top;childLayout=stackLayout;horizontal=1;startSize=38;horizontalStack=0;resizeParent=1;resizeParentMax=0;resizeLast=0;collapsible=1;marginBottom=0;whiteSpace=wrap;html=1;autosize=1;" vertex="1" parent="Nb2ypXuPiO57JabfBI1R-1">
          <mxGeometry x="-410" y="675" width="260" height="136" as="geometry">
            <mxRectangle x="456" y="270" width="100" height="30" as="alternateBounds" />
          </mxGeometry>
        </mxCell>
        <mxCell id="FNLvLqRnbHHo1b-LdxvE-74" value="&lt;div&gt;+ DayTime : UnityEvent&lt;/div&gt;+ NightTime : UnityEvent&lt;div&gt;+ Every5Min : UnityEvent&lt;/div&gt;" style="text;strokeColor=none;fillColor=none;align=left;verticalAlign=top;spacingLeft=4;spacingRight=4;overflow=hidden;rotatable=0;points=[[0,0.5],[1,0.5]];portConstraint=eastwest;whiteSpace=wrap;html=1;autosize=1;" vertex="1" parent="FNLvLqRnbHHo1b-LdxvE-73">
          <mxGeometry y="38" width="260" height="60" as="geometry" />
        </mxCell>
        <mxCell id="FNLvLqRnbHHo1b-LdxvE-75" value="" style="line;strokeWidth=1;fillColor=none;align=left;verticalAlign=middle;spacingTop=-1;spacingLeft=3;spacingRight=3;rotatable=0;labelPosition=right;points=[];portConstraint=eastwest;strokeColor=inherit;" vertex="1" parent="FNLvLqRnbHHo1b-LdxvE-73">
          <mxGeometry y="98" width="260" height="8" as="geometry" />
        </mxCell>
        <mxCell id="FNLvLqRnbHHo1b-LdxvE-76" value="-&amp;nbsp;" style="text;strokeColor=none;fillColor=none;align=left;verticalAlign=top;spacingLeft=4;spacingRight=4;overflow=hidden;rotatable=0;points=[[0,0.5],[1,0.5]];portConstraint=eastwest;whiteSpace=wrap;html=1;autosize=1;" vertex="1" parent="FNLvLqRnbHHo1b-LdxvE-73">
          <mxGeometry y="106" width="260" height="30" as="geometry" />
        </mxCell>
        <mxCell id="FNLvLqRnbHHo1b-LdxvE-77" value="House" style="swimlane;fontStyle=1;align=center;verticalAlign=top;childLayout=stackLayout;horizontal=1;startSize=38;horizontalStack=0;resizeParent=1;resizeParentMax=0;resizeLast=0;collapsible=1;marginBottom=0;whiteSpace=wrap;html=1;autosize=1;" vertex="1" parent="Nb2ypXuPiO57JabfBI1R-1">
          <mxGeometry x="-1290" y="1580" width="200" height="106" as="geometry">
            <mxRectangle x="456" y="270" width="100" height="30" as="alternateBounds" />
          </mxGeometry>
        </mxCell>
        <mxCell id="FNLvLqRnbHHo1b-LdxvE-78" value="+&amp;nbsp;" style="text;strokeColor=none;fillColor=none;align=left;verticalAlign=top;spacingLeft=4;spacingRight=4;overflow=hidden;rotatable=0;points=[[0,0.5],[1,0.5]];portConstraint=eastwest;whiteSpace=wrap;html=1;autosize=1;" vertex="1" parent="FNLvLqRnbHHo1b-LdxvE-77">
          <mxGeometry y="38" width="200" height="30" as="geometry" />
        </mxCell>
        <mxCell id="FNLvLqRnbHHo1b-LdxvE-79" value="" style="line;strokeWidth=1;fillColor=none;align=left;verticalAlign=middle;spacingTop=-1;spacingLeft=3;spacingRight=3;rotatable=0;labelPosition=right;points=[];portConstraint=eastwest;strokeColor=inherit;" vertex="1" parent="FNLvLqRnbHHo1b-LdxvE-77">
          <mxGeometry y="68" width="200" height="8" as="geometry" />
        </mxCell>
        <mxCell id="FNLvLqRnbHHo1b-LdxvE-80" value="-&amp;nbsp;" style="text;strokeColor=none;fillColor=none;align=left;verticalAlign=top;spacingLeft=4;spacingRight=4;overflow=hidden;rotatable=0;points=[[0,0.5],[1,0.5]];portConstraint=eastwest;whiteSpace=wrap;html=1;autosize=1;" vertex="1" parent="FNLvLqRnbHHo1b-LdxvE-77">
          <mxGeometry y="76" width="200" height="30" as="geometry" />
        </mxCell>
        <mxCell id="FNLvLqRnbHHo1b-LdxvE-81" value="Duplex" style="swimlane;fontStyle=1;align=center;verticalAlign=top;childLayout=stackLayout;horizontal=1;startSize=38;horizontalStack=0;resizeParent=1;resizeParentMax=0;resizeLast=0;collapsible=1;marginBottom=0;whiteSpace=wrap;html=1;autosize=1;" vertex="1" parent="Nb2ypXuPiO57JabfBI1R-1">
          <mxGeometry x="-1060" y="1580" width="200" height="106" as="geometry">
            <mxRectangle x="456" y="270" width="100" height="30" as="alternateBounds" />
          </mxGeometry>
        </mxCell>
        <mxCell id="FNLvLqRnbHHo1b-LdxvE-82" value="+" style="text;strokeColor=none;fillColor=none;align=left;verticalAlign=top;spacingLeft=4;spacingRight=4;overflow=hidden;rotatable=0;points=[[0,0.5],[1,0.5]];portConstraint=eastwest;whiteSpace=wrap;html=1;autosize=1;" vertex="1" parent="FNLvLqRnbHHo1b-LdxvE-81">
          <mxGeometry y="38" width="200" height="30" as="geometry" />
        </mxCell>
        <mxCell id="FNLvLqRnbHHo1b-LdxvE-83" value="" style="line;strokeWidth=1;fillColor=none;align=left;verticalAlign=middle;spacingTop=-1;spacingLeft=3;spacingRight=3;rotatable=0;labelPosition=right;points=[];portConstraint=eastwest;strokeColor=inherit;" vertex="1" parent="FNLvLqRnbHHo1b-LdxvE-81">
          <mxGeometry y="68" width="200" height="8" as="geometry" />
        </mxCell>
        <mxCell id="FNLvLqRnbHHo1b-LdxvE-84" value="-&amp;nbsp;" style="text;strokeColor=none;fillColor=none;align=left;verticalAlign=top;spacingLeft=4;spacingRight=4;overflow=hidden;rotatable=0;points=[[0,0.5],[1,0.5]];portConstraint=eastwest;whiteSpace=wrap;html=1;autosize=1;" vertex="1" parent="FNLvLqRnbHHo1b-LdxvE-81">
          <mxGeometry y="76" width="200" height="30" as="geometry" />
        </mxCell>
        <mxCell id="FNLvLqRnbHHo1b-LdxvE-85" value="Condo" style="swimlane;fontStyle=1;align=center;verticalAlign=top;childLayout=stackLayout;horizontal=1;startSize=38;horizontalStack=0;resizeParent=1;resizeParentMax=0;resizeLast=0;collapsible=1;marginBottom=0;whiteSpace=wrap;html=1;autosize=1;" vertex="1" parent="Nb2ypXuPiO57JabfBI1R-1">
          <mxGeometry x="-840" y="1580" width="200" height="106" as="geometry">
            <mxRectangle x="456" y="270" width="100" height="30" as="alternateBounds" />
          </mxGeometry>
        </mxCell>
        <mxCell id="FNLvLqRnbHHo1b-LdxvE-86" value="+" style="text;strokeColor=none;fillColor=none;align=left;verticalAlign=top;spacingLeft=4;spacingRight=4;overflow=hidden;rotatable=0;points=[[0,0.5],[1,0.5]];portConstraint=eastwest;whiteSpace=wrap;html=1;autosize=1;" vertex="1" parent="FNLvLqRnbHHo1b-LdxvE-85">
          <mxGeometry y="38" width="200" height="30" as="geometry" />
        </mxCell>
        <mxCell id="FNLvLqRnbHHo1b-LdxvE-87" value="" style="line;strokeWidth=1;fillColor=none;align=left;verticalAlign=middle;spacingTop=-1;spacingLeft=3;spacingRight=3;rotatable=0;labelPosition=right;points=[];portConstraint=eastwest;strokeColor=inherit;" vertex="1" parent="FNLvLqRnbHHo1b-LdxvE-85">
          <mxGeometry y="68" width="200" height="8" as="geometry" />
        </mxCell>
        <mxCell id="FNLvLqRnbHHo1b-LdxvE-88" value="-&amp;nbsp;" style="text;strokeColor=none;fillColor=none;align=left;verticalAlign=top;spacingLeft=4;spacingRight=4;overflow=hidden;rotatable=0;points=[[0,0.5],[1,0.5]];portConstraint=eastwest;whiteSpace=wrap;html=1;autosize=1;" vertex="1" parent="FNLvLqRnbHHo1b-LdxvE-85">
          <mxGeometry y="76" width="200" height="30" as="geometry" />
        </mxCell>
        <mxCell id="FNLvLqRnbHHo1b-LdxvE-89" value="&lt;b&gt;Timer&lt;br&gt;&lt;/b&gt;" style="swimlane;fontStyle=1;align=center;verticalAlign=top;childLayout=stackLayout;horizontal=1;startSize=38;horizontalStack=0;resizeParent=1;resizeParentMax=0;resizeLast=0;collapsible=1;marginBottom=0;whiteSpace=wrap;html=1;autosize=1;" vertex="1" collapsed="1" parent="Nb2ypXuPiO57JabfBI1R-1">
          <mxGeometry x="-975" y="643" width="120" height="48" as="geometry">
            <mxRectangle x="-305" y="480" width="160" height="276" as="alternateBounds" />
          </mxGeometry>
        </mxCell>
        <mxCell id="FNLvLqRnbHHo1b-LdxvE-90" value="&lt;p style=&quot;margin: 0px 0px 0px 4px;&quot;&gt;+ startPoint : float&lt;/p&gt;&lt;p style=&quot;margin: 0px 0px 0px 4px;&quot;&gt;+ endPoint : float&lt;/p&gt;&lt;p style=&quot;margin: 0px 0px 0px 4px;&quot;&gt;+ elapsed : float&lt;/p&gt;&lt;p style=&quot;margin: 0px 0px 0px 4px;&quot;&gt;+ running : bool&lt;/p&gt;" style="text;strokeColor=none;fillColor=none;align=left;verticalAlign=top;spacingLeft=4;spacingRight=4;overflow=hidden;rotatable=0;points=[[0,0.5],[1,0.5]];portConstraint=eastwest;whiteSpace=wrap;html=1;autosize=1;" vertex="1" parent="FNLvLqRnbHHo1b-LdxvE-89">
          <mxGeometry y="38" width="160" height="70" as="geometry" />
        </mxCell>
        <mxCell id="FNLvLqRnbHHo1b-LdxvE-91" value="" style="line;strokeWidth=1;fillColor=none;align=left;verticalAlign=middle;spacingTop=-1;spacingLeft=3;spacingRight=3;rotatable=0;labelPosition=right;points=[];portConstraint=eastwest;strokeColor=inherit;" vertex="1" parent="FNLvLqRnbHHo1b-LdxvE-89">
          <mxGeometry y="108" width="160" height="8" as="geometry" />
        </mxCell>
        <mxCell id="FNLvLqRnbHHo1b-LdxvE-92" value="&lt;p style=&quot;margin: 0px 0px 0px 4px;&quot;&gt;- StartPoint&lt;/p&gt;&lt;p style=&quot;margin: 0px 0px 0px 4px;&quot;&gt;- EndPoint&lt;/p&gt;&lt;p style=&quot;margin: 0px 0px 0px 4px;&quot;&gt;- Elapsed&lt;/p&gt;&lt;p style=&quot;margin: 0px 0px 0px 4px;&quot;&gt;- Running&lt;/p&gt;&lt;p style=&quot;margin: 0px 0px 0px 4px;&quot;&gt;- DeactivateTimer()&lt;/p&gt;&lt;p style=&quot;margin: 0px 0px 0px 4px;&quot;&gt;- ActivateTimer()&lt;/p&gt;&lt;p style=&quot;margin: 0px 0px 0px 4px;&quot;&gt;- CountUp()&lt;/p&gt;&lt;p style=&quot;margin: 0px 0px 0px 4px;&quot;&gt;- RestartTimer()&lt;/p&gt;&lt;p style=&quot;margin: 0px 0px 0px 4px;&quot;&gt;- UnderTime()&lt;/p&gt;&lt;p style=&quot;margin: 0px 0px 0px 4px;&quot;&gt;- OverTime()&lt;/p&gt;" style="text;strokeColor=none;fillColor=none;align=left;verticalAlign=top;spacingLeft=4;spacingRight=4;overflow=hidden;rotatable=0;points=[[0,0.5],[1,0.5]];portConstraint=eastwest;whiteSpace=wrap;html=1;autosize=1;" vertex="1" parent="FNLvLqRnbHHo1b-LdxvE-89">
          <mxGeometry y="116" width="160" height="160" as="geometry" />
        </mxCell>
        <mxCell id="FNLvLqRnbHHo1b-LdxvE-93" value="&lt;font style=&quot;font-size: 16px;&quot;&gt;Social Gatherings(?)&lt;/font&gt;" style="text;strokeColor=none;fillColor=none;html=1;align=center;verticalAlign=middle;whiteSpace=wrap;rounded=0;fontSize=12;fontFamily=Helvetica;fontColor=default;labelBackgroundColor=default;" vertex="1" parent="Nb2ypXuPiO57JabfBI1R-1">
          <mxGeometry x="-500" y="2628" width="60" height="30" as="geometry" />
        </mxCell>
        <mxCell id="FNLvLqRnbHHo1b-LdxvE-94" value="Stadium" style="swimlane;fontStyle=1;align=center;verticalAlign=top;childLayout=stackLayout;horizontal=1;startSize=38;horizontalStack=0;resizeParent=1;resizeParentMax=0;resizeLast=0;collapsible=1;marginBottom=0;whiteSpace=wrap;html=1;autosize=1;" vertex="1" parent="Nb2ypXuPiO57JabfBI1R-1">
          <mxGeometry x="-335" y="2600" width="160" height="106" as="geometry">
            <mxRectangle x="456" y="270" width="100" height="30" as="alternateBounds" />
          </mxGeometry>
        </mxCell>
        <mxCell id="FNLvLqRnbHHo1b-LdxvE-95" value="+&amp;nbsp;" style="text;strokeColor=none;fillColor=none;align=left;verticalAlign=top;spacingLeft=4;spacingRight=4;overflow=hidden;rotatable=0;points=[[0,0.5],[1,0.5]];portConstraint=eastwest;whiteSpace=wrap;html=1;autosize=1;" vertex="1" parent="FNLvLqRnbHHo1b-LdxvE-94">
          <mxGeometry y="38" width="160" height="30" as="geometry" />
        </mxCell>
        <mxCell id="FNLvLqRnbHHo1b-LdxvE-96" value="" style="line;strokeWidth=1;fillColor=none;align=left;verticalAlign=middle;spacingTop=-1;spacingLeft=3;spacingRight=3;rotatable=0;labelPosition=right;points=[];portConstraint=eastwest;strokeColor=inherit;" vertex="1" parent="FNLvLqRnbHHo1b-LdxvE-94">
          <mxGeometry y="68" width="160" height="8" as="geometry" />
        </mxCell>
        <mxCell id="FNLvLqRnbHHo1b-LdxvE-97" value="-&amp;nbsp;" style="text;strokeColor=none;fillColor=none;align=left;verticalAlign=top;spacingLeft=4;spacingRight=4;overflow=hidden;rotatable=0;points=[[0,0.5],[1,0.5]];portConstraint=eastwest;whiteSpace=wrap;html=1;autosize=1;" vertex="1" parent="FNLvLqRnbHHo1b-LdxvE-94">
          <mxGeometry y="76" width="160" height="30" as="geometry" />
        </mxCell>
        <mxCell id="FNLvLqRnbHHo1b-LdxvE-98" style="edgeStyle=elbowEdgeStyle;rounded=0;orthogonalLoop=1;jettySize=auto;elbow=vertical;html=1;strokeColor=default;align=center;verticalAlign=middle;fontFamily=Helvetica;fontSize=12;fontColor=default;labelBackgroundColor=default;startSize=8;endArrow=classic;endSize=8;" edge="1" parent="Nb2ypXuPiO57JabfBI1R-1" source="FNLvLqRnbHHo1b-LdxvE-99" target="FNLvLqRnbHHo1b-LdxvE-121">
          <mxGeometry relative="1" as="geometry" />
        </mxCell>
        <mxCell id="FNLvLqRnbHHo1b-LdxvE-99" value="OccurrenceHandler" style="swimlane;fontStyle=1;align=center;verticalAlign=top;childLayout=stackLayout;horizontal=1;startSize=38;horizontalStack=0;resizeParent=1;resizeParentMax=0;resizeLast=0;collapsible=1;marginBottom=0;whiteSpace=wrap;html=1;autosize=1;" vertex="1" parent="Nb2ypXuPiO57JabfBI1R-1">
          <mxGeometry x="-940" y="1320" width="180" height="106" as="geometry">
            <mxRectangle x="456" y="270" width="100" height="30" as="alternateBounds" />
          </mxGeometry>
        </mxCell>
        <mxCell id="FNLvLqRnbHHo1b-LdxvE-100" value="- creator : OccurrenceCreator" style="text;strokeColor=none;fillColor=none;align=left;verticalAlign=top;spacingLeft=4;spacingRight=4;overflow=hidden;rotatable=0;points=[[0,0.5],[1,0.5]];portConstraint=eastwest;whiteSpace=wrap;html=1;autosize=1;" vertex="1" parent="FNLvLqRnbHHo1b-LdxvE-99">
          <mxGeometry y="38" width="180" height="30" as="geometry" />
        </mxCell>
        <mxCell id="FNLvLqRnbHHo1b-LdxvE-101" value="" style="line;strokeWidth=1;fillColor=none;align=left;verticalAlign=middle;spacingTop=-1;spacingLeft=3;spacingRight=3;rotatable=0;labelPosition=right;points=[];portConstraint=eastwest;strokeColor=inherit;" vertex="1" parent="FNLvLqRnbHHo1b-LdxvE-99">
          <mxGeometry y="68" width="180" height="8" as="geometry" />
        </mxCell>
        <mxCell id="FNLvLqRnbHHo1b-LdxvE-102" value="- SpawnOccurrences()" style="text;strokeColor=none;fillColor=none;align=left;verticalAlign=top;spacingLeft=4;spacingRight=4;overflow=hidden;rotatable=0;points=[[0,0.5],[1,0.5]];portConstraint=eastwest;whiteSpace=wrap;html=1;autosize=1;" vertex="1" parent="FNLvLqRnbHHo1b-LdxvE-99">
          <mxGeometry y="76" width="180" height="30" as="geometry" />
        </mxCell>
        <mxCell id="FNLvLqRnbHHo1b-LdxvE-103" value="OfficeGrey&lt;span style=&quot;color: rgba(0, 0, 0, 0); font-family: monospace; font-size: 0px; font-weight: 400; text-align: start; text-wrap: nowrap;&quot;&gt;%3CmxGraphModel%3E%3Croot%3E%3CmxCell%20id%3D%220%22%2F%3E%3CmxCell%20id%3D%221%22%20parent%3D%220%22%2F%3E%3CmxCell%20id%3D%222%22%20value%3D%22Classname%22%20style%3D%22swimlane%3BfontStyle%3D1%3Balign%3Dcenter%3BverticalAlign%3Dtop%3BchildLayout%3DstackLayout%3Bhorizontal%3D1%3BstartSize%3D26%3BhorizontalStack%3D0%3BresizeParent%3D1%3BresizeParentMax%3D0%3BresizeLast%3D0%3Bcollapsible%3D1%3BmarginBottom%3D0%3BwhiteSpace%3Dwrap%3Bhtml%3D1%3Bautosize%3D1%3B%22%20vertex%3D%221%22%20parent%3D%221%22%3E%3CmxGeometry%20x%3D%22270%22%20y%3D%22790%22%20width%3D%22160%22%20height%3D%2294%22%20as%3D%22geometry%22%3E%3CmxRectangle%20x%3D%22456%22%20y%3D%22270%22%20width%3D%22100%22%20height%3D%2230%22%20as%3D%22alternateBounds%22%2F%3E%3C%2FmxGeometry%3E%3C%2FmxCell%3E%3CmxCell%20id%3D%223%22%20value%3D%22%2B%26amp%3Bnbsp%3B%22%20style%3D%22text%3BstrokeColor%3Dnone%3BfillColor%3Dnone%3Balign%3Dleft%3BverticalAlign%3Dtop%3BspacingLeft%3D4%3BspacingRight%3D4%3Boverflow%3Dhidden%3Brotatable%3D0%3Bpoints%3D%5B%5B0%2C0.5%5D%2C%5B1%2C0.5%5D%5D%3BportConstraint%3Deastwest%3BwhiteSpace%3Dwrap%3Bhtml%3D1%3Bautosize%3D1%3B%22%20vertex%3D%221%22%20parent%3D%222%22%3E%3CmxGeometry%20y%3D%2226%22%20width%3D%22160%22%20height%3D%2230%22%20as%3D%22geometry%22%2F%3E%3C%2FmxCell%3E%3CmxCell%20id%3D%224%22%20value%3D%22%22%20style%3D%22line%3BstrokeWidth%3D1%3BfillColor%3Dnone%3Balign%3Dleft%3BverticalAlign%3Dmiddle%3BspacingTop%3D-1%3BspacingLeft%3D3%3BspacingRight%3D3%3Brotatable%3D0%3BlabelPosition%3Dright%3Bpoints%3D%5B%5D%3BportConstraint%3Deastwest%3BstrokeColor%3Dinherit%3B%22%20vertex%3D%221%22%20parent%3D%222%22%3E%3CmxGeometry%20y%3D%2256%22%20width%3D%22160%22%20height%3D%228%22%20as%3D%22geometry%22%2F%3E%3C%2FmxCell%3E%3CmxCell%20id%3D%225%22%20value%3D%22-%26amp%3Bnbsp%3B%22%20style%3D%22text%3BstrokeColor%3Dnone%3BfillColor%3Dnone%3Balign%3Dleft%3BverticalAlign%3Dtop%3BspacingLeft%3D4%3BspacingRight%3D4%3Boverflow%3Dhidden%3Brotatable%3D0%3Bpoints%3D%5B%5B0%2C0.5%5D%2C%5B1%2C0.5%5D%5D%3BportConstraint%3Deastwest%3BwhiteSpace%3Dwrap%3Bhtml%3D1%3Bautosize%3D1%3B%22%20vertex%3D%221%22%20parent%3D%222%22%3E%3CmxGeometry%20y%3D%2264%22%20width%3D%22160%22%20height%3D%2230%22%20as%3D%22geometry%22%2F%3E%3C%2FmxCell%3E%3C%2Froot%3E%3C%2FmxGraphModel%&lt;/span&gt;" style="swimlane;fontStyle=1;align=center;verticalAlign=top;childLayout=stackLayout;horizontal=1;startSize=38;horizontalStack=0;resizeParent=1;resizeParentMax=0;resizeLast=0;collapsible=1;marginBottom=0;whiteSpace=wrap;html=1;autosize=1;" vertex="1" parent="Nb2ypXuPiO57JabfBI1R-1">
          <mxGeometry x="-110" y="1774" width="160" height="106" as="geometry">
            <mxRectangle x="456" y="270" width="100" height="30" as="alternateBounds" />
          </mxGeometry>
        </mxCell>
        <mxCell id="FNLvLqRnbHHo1b-LdxvE-104" value="+&amp;nbsp;" style="text;strokeColor=none;fillColor=none;align=left;verticalAlign=top;spacingLeft=4;spacingRight=4;overflow=hidden;rotatable=0;points=[[0,0.5],[1,0.5]];portConstraint=eastwest;whiteSpace=wrap;html=1;autosize=1;" vertex="1" parent="FNLvLqRnbHHo1b-LdxvE-103">
          <mxGeometry y="38" width="160" height="30" as="geometry" />
        </mxCell>
        <mxCell id="FNLvLqRnbHHo1b-LdxvE-105" value="" style="line;strokeWidth=1;fillColor=none;align=left;verticalAlign=middle;spacingTop=-1;spacingLeft=3;spacingRight=3;rotatable=0;labelPosition=right;points=[];portConstraint=eastwest;strokeColor=inherit;" vertex="1" parent="FNLvLqRnbHHo1b-LdxvE-103">
          <mxGeometry y="68" width="160" height="8" as="geometry" />
        </mxCell>
        <mxCell id="FNLvLqRnbHHo1b-LdxvE-106" value="-&amp;nbsp;" style="text;strokeColor=none;fillColor=none;align=left;verticalAlign=top;spacingLeft=4;spacingRight=4;overflow=hidden;rotatable=0;points=[[0,0.5],[1,0.5]];portConstraint=eastwest;whiteSpace=wrap;html=1;autosize=1;" vertex="1" parent="FNLvLqRnbHHo1b-LdxvE-103">
          <mxGeometry y="76" width="160" height="30" as="geometry" />
        </mxCell>
        <mxCell id="FNLvLqRnbHHo1b-LdxvE-107" value="ShopCoffee" style="swimlane;fontStyle=1;align=center;verticalAlign=top;childLayout=stackLayout;horizontal=1;startSize=38;horizontalStack=0;resizeParent=1;resizeParentMax=0;resizeLast=0;collapsible=1;marginBottom=0;whiteSpace=wrap;html=1;autosize=1;" vertex="1" parent="Nb2ypXuPiO57JabfBI1R-1">
          <mxGeometry x="270" y="1948" width="160" height="106" as="geometry">
            <mxRectangle x="456" y="270" width="100" height="30" as="alternateBounds" />
          </mxGeometry>
        </mxCell>
        <mxCell id="FNLvLqRnbHHo1b-LdxvE-108" value="+&amp;nbsp;" style="text;strokeColor=none;fillColor=none;align=left;verticalAlign=top;spacingLeft=4;spacingRight=4;overflow=hidden;rotatable=0;points=[[0,0.5],[1,0.5]];portConstraint=eastwest;whiteSpace=wrap;html=1;autosize=1;" vertex="1" parent="FNLvLqRnbHHo1b-LdxvE-107">
          <mxGeometry y="38" width="160" height="30" as="geometry" />
        </mxCell>
        <mxCell id="FNLvLqRnbHHo1b-LdxvE-109" value="" style="line;strokeWidth=1;fillColor=none;align=left;verticalAlign=middle;spacingTop=-1;spacingLeft=3;spacingRight=3;rotatable=0;labelPosition=right;points=[];portConstraint=eastwest;strokeColor=inherit;" vertex="1" parent="FNLvLqRnbHHo1b-LdxvE-107">
          <mxGeometry y="68" width="160" height="8" as="geometry" />
        </mxCell>
        <mxCell id="FNLvLqRnbHHo1b-LdxvE-110" value="-&amp;nbsp;" style="text;strokeColor=none;fillColor=none;align=left;verticalAlign=top;spacingLeft=4;spacingRight=4;overflow=hidden;rotatable=0;points=[[0,0.5],[1,0.5]];portConstraint=eastwest;whiteSpace=wrap;html=1;autosize=1;" vertex="1" parent="FNLvLqRnbHHo1b-LdxvE-107">
          <mxGeometry y="76" width="160" height="30" as="geometry" />
        </mxCell>
        <mxCell id="FNLvLqRnbHHo1b-LdxvE-111" style="edgeStyle=elbowEdgeStyle;rounded=0;orthogonalLoop=1;jettySize=auto;elbow=vertical;html=1;strokeColor=default;align=center;verticalAlign=middle;fontFamily=Helvetica;fontSize=12;fontColor=default;labelBackgroundColor=default;startSize=8;endArrow=classic;endSize=8;" edge="1" parent="Nb2ypXuPiO57JabfBI1R-1" source="FNLvLqRnbHHo1b-LdxvE-112" target="FNLvLqRnbHHo1b-LdxvE-0">
          <mxGeometry relative="1" as="geometry" />
        </mxCell>
        <mxCell id="FNLvLqRnbHHo1b-LdxvE-112" value="BuildingSpawner" style="swimlane;fontStyle=1;align=center;verticalAlign=top;childLayout=stackLayout;horizontal=1;startSize=38;horizontalStack=0;resizeParent=1;resizeParentMax=0;resizeLast=0;collapsible=1;marginBottom=0;whiteSpace=wrap;html=1;autosize=1;" vertex="1" parent="Nb2ypXuPiO57JabfBI1R-1">
          <mxGeometry x="-660" y="1150" width="160" height="106" as="geometry">
            <mxRectangle x="-660" y="1150" width="100" height="30" as="alternateBounds" />
          </mxGeometry>
        </mxCell>
        <mxCell id="FNLvLqRnbHHo1b-LdxvE-113" value="+&amp;nbsp;" style="text;strokeColor=none;fillColor=none;align=left;verticalAlign=top;spacingLeft=4;spacingRight=4;overflow=hidden;rotatable=0;points=[[0,0.5],[1,0.5]];portConstraint=eastwest;whiteSpace=wrap;html=1;autosize=1;" vertex="1" parent="FNLvLqRnbHHo1b-LdxvE-112">
          <mxGeometry y="38" width="160" height="30" as="geometry" />
        </mxCell>
        <mxCell id="FNLvLqRnbHHo1b-LdxvE-114" value="" style="line;strokeWidth=1;fillColor=none;align=left;verticalAlign=middle;spacingTop=-1;spacingLeft=3;spacingRight=3;rotatable=0;labelPosition=right;points=[];portConstraint=eastwest;strokeColor=inherit;" vertex="1" parent="FNLvLqRnbHHo1b-LdxvE-112">
          <mxGeometry y="68" width="160" height="8" as="geometry" />
        </mxCell>
        <mxCell id="FNLvLqRnbHHo1b-LdxvE-115" value="- SpawnBuildings()" style="text;strokeColor=none;fillColor=none;align=left;verticalAlign=top;spacingLeft=4;spacingRight=4;overflow=hidden;rotatable=0;points=[[0,0.5],[1,0.5]];portConstraint=eastwest;whiteSpace=wrap;html=1;autosize=1;" vertex="1" parent="FNLvLqRnbHHo1b-LdxvE-112">
          <mxGeometry y="76" width="160" height="30" as="geometry" />
        </mxCell>
        <mxCell id="FNLvLqRnbHHo1b-LdxvE-116" value="BuildingSpawn" style="ellipse;html=1;shape=endState;align=center;verticalAlign=bottom;fontFamily=Helvetica;fontSize=12;strokeColor=default;fillColor=none;labelPosition=center;verticalLabelPosition=top;" vertex="1" parent="Nb2ypXuPiO57JabfBI1R-1">
          <mxGeometry x="-380" y="1180.5" width="45" height="45" as="geometry" />
        </mxCell>
        <mxCell id="FNLvLqRnbHHo1b-LdxvE-117" style="edgeStyle=elbowEdgeStyle;rounded=0;orthogonalLoop=1;jettySize=auto;elbow=vertical;html=1;strokeColor=default;align=center;verticalAlign=middle;fontFamily=Helvetica;fontSize=12;fontColor=default;labelBackgroundColor=default;startSize=8;endArrow=classic;endSize=8;" edge="1" parent="Nb2ypXuPiO57JabfBI1R-1" source="FNLvLqRnbHHo1b-LdxvE-113" target="FNLvLqRnbHHo1b-LdxvE-116">
          <mxGeometry relative="1" as="geometry" />
        </mxCell>
        <mxCell id="FNLvLqRnbHHo1b-LdxvE-118" value="" style="edgeStyle=elbowEdgeStyle;rounded=0;orthogonalLoop=1;jettySize=auto;html=1;strokeColor=default;align=center;verticalAlign=middle;fontFamily=Helvetica;fontSize=12;fontColor=default;labelBackgroundColor=default;startSize=8;endArrow=classic;endSize=8;elbow=vertical;" edge="1" parent="Nb2ypXuPiO57JabfBI1R-1" source="FNLvLqRnbHHo1b-LdxvE-7" target="FNLvLqRnbHHo1b-LdxvE-119">
          <mxGeometry relative="1" as="geometry">
            <mxPoint x="-580" y="2320" as="sourcePoint" />
            <mxPoint x="40" y="1296" as="targetPoint" />
            <Array as="points" />
          </mxGeometry>
        </mxCell>
        <mxCell id="FNLvLqRnbHHo1b-LdxvE-119" value="BuidlingType Prefabs" style="ellipse;html=1;shape=endState;align=center;verticalAlign=bottom;fontFamily=Helvetica;fontSize=12;strokeColor=default;fillColor=none;labelPosition=center;verticalLabelPosition=top;" vertex="1" parent="Nb2ypXuPiO57JabfBI1R-1">
          <mxGeometry x="-602.5" y="1350" width="45" height="45" as="geometry" />
        </mxCell>
        <mxCell id="FNLvLqRnbHHo1b-LdxvE-120" value="" style="endArrow=block;dashed=1;endFill=0;endSize=12;html=1;rounded=0;strokeColor=default;align=center;verticalAlign=middle;fontFamily=Helvetica;fontSize=12;fontColor=default;labelBackgroundColor=default;edgeStyle=elbowEdgeStyle;elbow=vertical;" edge="1" parent="Nb2ypXuPiO57JabfBI1R-1" source="FNLvLqRnbHHo1b-LdxvE-89" target="FNLvLqRnbHHo1b-LdxvE-64">
          <mxGeometry width="160" relative="1" as="geometry">
            <mxPoint x="-815" y="656" as="sourcePoint" />
            <mxPoint x="-655" y="656" as="targetPoint" />
            <Array as="points">
              <mxPoint x="-905" y="690" />
            </Array>
          </mxGeometry>
        </mxCell>
        <mxCell id="FNLvLqRnbHHo1b-LdxvE-121" value="OccurrenceCreator" style="swimlane;fontStyle=1;align=center;verticalAlign=top;childLayout=stackLayout;horizontal=1;startSize=38;horizontalStack=0;resizeParent=1;resizeParentMax=0;resizeLast=0;collapsible=1;marginBottom=0;whiteSpace=wrap;html=1;autosize=1;" vertex="1" parent="Nb2ypXuPiO57JabfBI1R-1">
          <mxGeometry x="-930" y="1140" width="160" height="116" as="geometry">
            <mxRectangle x="456" y="270" width="100" height="30" as="alternateBounds" />
          </mxGeometry>
        </mxCell>
        <mxCell id="FNLvLqRnbHHo1b-LdxvE-122" value="+&amp;nbsp;" style="text;strokeColor=none;fillColor=none;align=left;verticalAlign=top;spacingLeft=4;spacingRight=4;overflow=hidden;rotatable=0;points=[[0,0.5],[1,0.5]];portConstraint=eastwest;whiteSpace=wrap;html=1;autosize=1;" vertex="1" parent="FNLvLqRnbHHo1b-LdxvE-121">
          <mxGeometry y="38" width="160" height="30" as="geometry" />
        </mxCell>
        <mxCell id="FNLvLqRnbHHo1b-LdxvE-123" value="" style="line;strokeWidth=1;fillColor=none;align=left;verticalAlign=middle;spacingTop=-1;spacingLeft=3;spacingRight=3;rotatable=0;labelPosition=right;points=[];portConstraint=eastwest;strokeColor=inherit;" vertex="1" parent="FNLvLqRnbHHo1b-LdxvE-121">
          <mxGeometry y="68" width="160" height="8" as="geometry" />
        </mxCell>
        <mxCell id="FNLvLqRnbHHo1b-LdxvE-124" value="&lt;div&gt;- HospitalOverload()&lt;/div&gt;&lt;div&gt;- EconomicDownturn()&lt;/div&gt;" style="text;strokeColor=none;fillColor=none;align=left;verticalAlign=top;spacingLeft=4;spacingRight=4;overflow=hidden;rotatable=0;points=[[0,0.5],[1,0.5]];portConstraint=eastwest;whiteSpace=wrap;html=1;autosize=1;" vertex="1" parent="FNLvLqRnbHHo1b-LdxvE-121">
          <mxGeometry y="76" width="160" height="40" as="geometry" />
        </mxCell>
      </root>
    </mxGraphModel>
  </diagram>
</mxfile>
